<svg width="260" height="190" viewBox="0 0 260 190" fill="none" xmlns="http://www.w3.org/2000/svg">
<path d="M131.411 94.0671C117.973 94.5916 106.023 87.3714 99.8814 76.4099C99.3565 76.4099 98.7966 76.4624 98.2717 76.4799C91.4479 76.7071 85.3414 76.4274 80.1973 75.6582V79.0323C80.1973 82.5812 82.1044 85.8679 85.1664 87.6336L125.095 110.675C128.174 112.441 131.953 112.441 135.033 110.675L174.961 87.6336C178.023 85.8679 179.93 82.5812 179.93 79.0323V71.2876C174.926 73.0009 165.95 75.9379 159.704 77.2666C153.895 86.9343 143.519 93.5776 131.394 94.0671H131.411ZM94.6323 85.3609C93.635 85.3609 92.8301 84.5567 92.8301 83.5602C92.8301 82.5637 93.635 81.777 94.6323 81.777C95.6296 81.777 96.4345 82.5637 96.4345 83.5602C96.4345 84.5567 95.6296 85.3609 94.6323 85.3609ZM126.617 105.256C124.797 105.256 123.327 103.787 123.327 101.987C123.327 100.186 124.797 98.7174 126.617 98.7174C128.437 98.7174 129.889 100.186 129.889 101.987C129.889 103.787 128.419 105.256 126.617 105.256ZM168.155 78.6651C169.012 78.6651 169.695 79.3644 169.695 80.2036C169.695 81.0427 168.995 81.7595 168.155 81.7595C167.315 81.7595 166.598 81.0602 166.598 80.2036C166.598 79.347 167.297 78.6651 168.155 78.6651Z" fill="url(#paint0_linear_294_735)"/>
<path d="M179.945 41.9533C179.945 41.9533 179.91 41.9533 179.875 41.9183C179.14 41.6735 178.37 41.4288 177.583 41.2015C177.548 41.2015 177.478 41.1666 177.425 41.1666C176.62 40.9218 175.816 40.6945 174.958 40.4673C174.171 40.275 173.348 40.0652 172.526 39.8903C172.334 39.8554 172.159 39.8029 171.966 39.768C171.196 39.5757 170.426 39.4358 169.622 39.261C169.359 39.226 169.097 39.1561 168.834 39.1211C168.204 38.9988 167.574 38.8764 166.927 38.7715C166.507 38.6841 166.105 38.6316 165.685 38.5617C165.107 38.4568 164.512 38.3694 163.9 38.282C163.498 38.212 163.095 38.1596 162.675 38.0897C161.958 37.9848 161.205 37.8799 160.471 37.7925C159.998 37.74 159.526 37.6876 159.071 37.6176C158.581 37.5652 158.109 37.5128 157.619 37.4428C157.269 37.4079 156.919 37.3729 156.551 37.3379C156.621 37.4428 156.691 37.5302 156.761 37.6176C156.761 37.6176 156.761 37.6526 156.796 37.6526C157.356 38.3344 157.881 39.0337 158.406 39.768C158.441 39.8029 158.458 39.8554 158.493 39.9078C158.913 40.4848 159.298 41.0966 159.666 41.726C159.718 41.8134 159.771 41.9008 159.823 41.9708C160.121 42.4777 160.383 42.9847 160.681 43.5092C160.786 43.719 160.908 43.9463 161.013 44.156C163.13 48.3868 164.407 53.142 164.6 58.1769C164.6 58.4741 164.6 58.7538 164.6 59.051C157.321 62.6698 144.758 65.3621 130.393 65.9216C115.888 66.481 103.045 64.7502 95.5217 61.6559C95.5217 61.3936 95.4867 61.1489 95.4867 60.8866C95.2942 55.7818 96.204 50.8867 98.0237 46.4637C98.1987 46.0616 98.3562 45.677 98.5311 45.2924C98.6361 45.0826 98.7236 44.8553 98.8461 44.6455C99.0386 44.2609 99.2135 43.8763 99.406 43.5092C99.511 43.3169 99.5985 43.1071 99.7209 42.9148C100.018 42.3903 100.316 41.8484 100.648 41.3414C100.753 41.184 100.841 41.0442 100.928 40.8868C101.191 40.4847 101.453 40.1001 101.716 39.733C107.7 31.2016 117.445 25.4674 128.679 25.0304C137.829 24.6632 146.281 27.9149 152.702 33.4568C163.69 32.7925 173.138 33.3694 179.927 35.1177V32.9673C179.927 29.4184 178.02 26.1317 174.958 24.366L135.03 1.32429C131.95 -0.441429 128.171 -0.441429 125.092 1.32429L85.1634 24.366C82.1014 26.1317 80.1943 29.4184 80.1943 32.9673V45.5022C71.1658 49.1735 65.8292 53.6315 66.0042 58.2818C66.1966 63.2817 72.863 67.5999 83.5362 70.6068C83.8861 70.7117 84.2361 70.7991 84.586 70.904C85.0584 71.0089 85.5309 71.1488 86.0033 71.2537C86.4232 71.3586 86.8781 71.4635 87.3156 71.5858C87.8755 71.7082 88.4704 71.8481 89.0478 71.9705C89.7301 72.1103 90.4125 72.2502 91.1124 72.39C91.5498 72.4774 92.0048 72.5649 92.4597 72.6523C92.9846 72.7397 93.527 72.8446 94.0694 72.9145C94.5593 73.0019 95.0317 73.0893 95.5392 73.1593C96.0466 73.2467 96.554 73.3166 97.0789 73.3865C97.5338 73.4565 97.9712 73.5264 98.4437 73.5788C107.962 74.8725 119.02 75.3795 130.761 74.925C142.414 74.4529 153.297 73.1068 162.64 71.0963C162.64 71.0963 176.183 67.6523 179.927 65.9565C188.886 62.2852 194.187 57.8447 193.995 53.2469C193.82 48.7889 188.571 44.8903 179.927 41.9708L179.945 41.9533ZM155.257 19.6633C156.324 19.6633 157.199 20.5374 157.199 21.6213C157.199 22.7052 156.324 23.5793 155.257 23.5793C154.189 23.5793 153.297 22.7052 153.297 21.6213C153.297 20.5374 154.172 19.6633 155.257 19.6633ZM133.613 9.40113C135.572 9.40113 137.165 10.9745 137.165 12.95C137.165 14.9256 135.572 16.499 133.613 16.499C131.653 16.499 130.061 14.9081 130.061 12.95C130.061 10.992 131.636 9.40113 133.613 9.40113ZM114.191 15.5899C115.608 15.5899 116.763 16.7437 116.763 18.1598C116.763 19.5759 115.608 20.7472 114.191 20.7472C112.774 20.7472 111.619 19.5933 111.619 18.1598C111.619 16.7262 112.774 15.5899 114.191 15.5899ZM91.2349 35.6247C89.9576 35.6247 88.9428 34.5932 88.9428 33.317C88.9428 32.0408 89.9576 31.0093 91.2349 31.0093C92.5122 31.0093 93.527 32.0408 93.527 33.317C93.527 34.5932 92.5122 35.6247 91.2349 35.6247Z" fill="url(#paint1_linear_294_735)"/>
<g clip-path="url(#clip0_294_735)">
<path d="M73.7888 128.125V133.585H57.6038C54.7529 133.585 53.4958 135.117 53.4958 137.292C53.4958 139.178 54.4835 140.998 58.165 140.998H65.5504C74.1479 140.998 76.1683 145.726 76.1683 150.209C76.1683 155.492 73.3174 159.376 66.1116 159.376H48.5124V153.916H66.2912C69.2767 153.916 70.6461 152.296 70.6461 150.032C70.6461 147.99 69.5686 146.148 65.6851 146.148H58.3446C49.9266 146.148 47.9512 141.487 47.9512 137.136C47.9512 131.965 50.7572 128.169 57.7834 128.169H73.7888V128.125Z" fill="#9FCDDD"/>
<path d="M100.728 128.125C107.844 128.125 110.874 132.475 110.874 137.469C110.874 142.197 108.113 147.28 100.728 147.28H90.8957C90.3794 147.28 90.1101 147.502 90.1101 148.057V159.332H84.5879V146.991C84.5879 143.484 86.0919 142.042 89.5489 142.042H100.908C104.05 142.042 105.307 139.911 105.307 137.736C105.307 135.561 103.96 133.563 100.952 133.563H84.543V128.103H100.728V128.125Z" fill="#9FCDDD"/>
<path d="M118.458 159.331H112.375L123.464 131.587C124.632 128.68 126.787 127.57 130.109 127.57C133.431 127.57 135.541 128.68 136.664 131.587L147.326 159.331H141.198L131.613 134.206C131.344 133.474 130.827 133.141 130.064 133.141C129.301 133.141 128.807 133.474 128.47 134.206L118.458 159.331Z" fill="#9FCDDD"/>
<path d="M177.836 128.125V133.585H165.625C159.541 133.585 156.87 136.581 156.87 143.75C156.87 150.92 159.496 153.872 165.625 153.872H177.836V159.332H165.625C156.398 159.332 151.348 154.204 151.348 143.75C151.348 133.296 156.443 128.125 165.625 128.125H177.836Z" fill="#9FCDDD"/>
<path d="M211.976 128.125V133.585H196.173C192.85 133.585 191.391 135.116 191.391 137.514C191.391 140.066 193.03 141.22 196.217 141.22H211.751V146.17H196.083C192.895 146.17 191.256 147.413 191.256 149.965C191.256 152.518 192.805 153.894 196.038 153.894H212.043V159.354H196.038C188.563 159.354 185.51 155.692 185.51 150.853C185.51 147.302 187.148 144.882 190.044 143.684C187.104 142.485 185.6 140.066 185.6 136.648C185.6 131.654 188.742 128.147 196.173 128.147H211.976V128.125Z" fill="#9FCDDD"/>
<path d="M62.0722 166.966C68.7842 166.966 72.533 170.762 72.533 178.463C72.533 186.165 68.8291 189.85 62.0722 189.85H58.9295C52.1727 189.85 48.4688 186.121 48.4688 178.463C48.4688 170.806 52.1951 166.966 58.9295 166.966H62.0722ZM58.9071 170.961C54.4624 170.961 52.4869 173.203 52.4869 178.441C52.4869 183.679 54.4175 185.832 58.9071 185.832H62.0498C66.4945 185.832 68.425 183.657 68.425 178.419C68.425 173.181 66.4945 170.961 62.0498 170.961H58.9071Z" fill="#9FCDDD"/>
<path d="M81.2203 166.966V182.259C81.2203 184.523 82.3876 185.854 85.0589 185.854H89.1668C91.7708 185.854 92.9606 184.523 92.9606 182.259V166.966H96.9338V182.547C96.9338 187.364 94.3523 189.827 89.4362 189.827H84.565C79.6265 189.827 77.0898 187.364 77.0898 182.547V166.966H81.1978H81.2203Z" fill="#9FCDDD"/>
<path d="M118.146 166.966V170.961H111.389V189.827H107.304V170.961H100.547V166.966H118.124H118.146Z" fill="#9FCDDD"/>
<path d="M133.724 166.966C138.932 166.966 141.154 170.162 141.154 173.802C141.154 177.265 139.134 180.994 133.724 180.994H126.518C126.136 180.994 125.934 181.171 125.934 181.571V189.85H121.894V180.794C121.894 178.219 122.993 177.176 125.53 177.176H133.858C136.148 177.176 137.091 175.622 137.091 174.024C137.091 172.426 136.103 170.984 133.903 170.984H121.871V166.988H133.724V166.966Z" fill="#9FCDDD"/>
<path d="M157.973 166.966C164.685 166.966 168.433 170.762 168.433 178.463C168.433 186.165 164.729 189.85 157.973 189.85H154.83C148.073 189.85 144.369 186.121 144.369 178.463C144.369 170.806 148.096 166.966 154.83 166.966H157.973ZM154.807 170.961C150.363 170.961 148.41 173.203 148.41 178.441C148.41 183.679 150.318 185.832 154.807 185.832H157.95C162.417 185.832 164.325 183.657 164.325 178.419C164.325 173.181 162.417 170.961 157.95 170.961H154.807Z" fill="#9FCDDD"/>
<path d="M191.036 166.966V170.961H179.183C177.096 170.961 176.175 172.071 176.175 173.669C176.175 175.068 176.894 176.377 179.61 176.377H185.02C191.328 176.377 192.809 179.84 192.809 183.124C192.809 186.986 190.722 189.827 185.446 189.827H172.561V185.832H185.581C187.781 185.832 188.769 184.656 188.769 182.991C188.769 181.504 187.983 180.15 185.132 180.15H179.745C173.571 180.15 172.135 176.732 172.135 173.536C172.135 169.741 174.2 166.966 179.341 166.966H191.058H191.036Z" fill="#9FCDDD"/>
<path d="M212.046 166.966V170.961H205.29V189.827H201.204V170.961H194.447V166.966H212.024H212.046Z" fill="#9FCDDD"/>
</g>
<defs>
<linearGradient id="paint0_linear_294_735" x1="56.1214" y1="40.8858" x2="172.138" y2="101.28" gradientUnits="userSpaceOnUse">
<stop stop-color="#E1EDF7"/>
<stop offset="0.3" stop-color="#99CEE5"/>
<stop offset="0.62" stop-color="#5C7D9A"/>
<stop offset="0.85" stop-color="#36526C"/>
<stop offset="1" stop-color="#233C54"/>
</linearGradient>
<linearGradient id="paint1_linear_294_735" x1="69.1886" y1="15.7997" x2="185.187" y2="76.1935" gradientUnits="userSpaceOnUse">
<stop stop-color="#E1EDF7"/>
<stop offset="0.3" stop-color="#99CEE5"/>
<stop offset="0.62" stop-color="#5C7D9A"/>
<stop offset="0.85" stop-color="#36526C"/>
<stop offset="1" stop-color="#233C54"/>
</linearGradient>
<clipPath id="clip0_294_735">
<rect width="164" height="62" fill="white" transform="translate(48 128)"/>
</clipPath>
</defs>
</svg>
