<svg width="260" height="90" viewBox="0 0 260 90" fill="none" xmlns="http://www.w3.org/2000/svg">
<g filter="url(#filter0_i_294_605)">
<path d="M233.506 0H26.2013C24.0435 0 22.0698 1.21542 21.0986 3.14224L1.29645 42.428C0.481016 44.0457 0.481014 45.9543 1.29645 47.572L21.0986 86.8578C22.0698 88.7846 24.0435 90 26.2013 90H233.506C235.652 90 237.617 88.7973 238.594 86.8861L258.671 47.6004C259.506 45.9673 259.506 44.0327 258.671 42.3996L238.594 3.11388C237.617 1.2027 235.652 0 233.506 0Z" fill="#0A243D"/>
</g>
<path d="M26.2013 1.5H233.506C235.088 1.5 236.538 2.38699 237.258 3.79649L257.335 43.0822C257.951 44.2867 257.951 45.7134 257.335 46.9178L237.258 86.2035C236.538 87.613 235.088 88.5 233.506 88.5H26.2013C24.6099 88.5 23.1543 87.6036 22.438 86.1826L2.63591 46.8969C2.03453 45.7038 2.03453 44.2962 2.63591 43.1031L22.438 3.8174C23.1543 2.39638 24.6099 1.5 26.2013 1.5Z" stroke="url(#paint0_linear_294_605)" stroke-width="3"/>
<defs>
<filter id="filter0_i_294_605" x="0.685547" y="0" width="258.611" height="90" filterUnits="userSpaceOnUse" color-interpolation-filters="sRGB">
<feFlood flood-opacity="0" result="BackgroundImageFix"/>
<feBlend mode="normal" in="SourceGraphic" in2="BackgroundImageFix" result="shape"/>
<feColorMatrix in="SourceAlpha" type="matrix" values="0 0 0 0 0 0 0 0 0 0 0 0 0 0 0 0 0 0 127 0" result="hardAlpha"/>
<feOffset/>
<feGaussianBlur stdDeviation="14"/>
<feComposite in2="hardAlpha" operator="arithmetic" k2="-1" k3="1"/>
<feColorMatrix type="matrix" values="0 0 0 0 0.183333 0 0 0 0 0.754466 0 0 0 0 1 0 0 0 1 0"/>
<feBlend mode="normal" in2="shape" result="effect1_innerShadow_294_605"/>
</filter>
<linearGradient id="paint0_linear_294_605" x1="-0.374718" y1="-7.83618e-07" x2="265.003" y2="70.45" gradientUnits="userSpaceOnUse">
<stop stop-color="#35C2FF"/>
<stop offset="1" stop-color="#BFECFF"/>
</linearGradient>
</defs>
</svg>
