<svg width="24" height="24" viewBox="0 0 24 24" fill="none" xmlns="http://www.w3.org/2000/svg">
<g clip-path="url(#clip0_305_1312)">
<path d="M21.9333 12C21.6019 12 21.3353 12.2694 21.314 12.6001C21.002 17.4566 16.9317 21.3333 11.9999 21.3333C6.86659 21.3333 2.66659 17.1333 2.66659 12C2.66659 7.28191 6.14219 3.35653 10.7608 2.73137C11.105 2.68479 11.3999 2.96126 11.3999 3.30856V4.58364C11.3999 4.89469 11.1611 5.1514 10.8543 5.2027C7.33567 5.7911 4.81609 8.98429 5.13325 12.6C5.46659 16.4 8.79992 19.2 12.5999 18.8666C15.9349 18.552 18.5572 15.9211 18.8411 12.5996C18.8693 12.2694 18.598 12 18.2666 12H18.1333C17.8019 12 17.5367 12.2696 17.5015 12.5991C17.2049 15.3816 14.8641 17.5333 11.9999 17.5333C8.93325 17.5333 6.46659 15.0666 6.46659 12C6.46659 9.42658 8.21228 7.19106 10.6686 6.5873C11.0177 6.50149 11.3333 6.78282 11.3333 7.14231V8.91868C11.3333 9.1999 11.1343 9.43667 10.8754 9.54656C9.91897 9.95257 9.26659 10.901 9.26659 12C9.26659 13.4666 10.4666 14.6666 11.9333 14.6666C13.3999 14.6666 14.5999 13.4666 14.5999 12C14.5999 10.9644 13.9544 10.0281 13.0491 9.61957C12.7953 9.50505 12.5999 9.26987 12.5999 8.99144V1.83243C12.5999 1.57418 12.4322 1.34219 12.174 1.33494C12.116 1.33331 12.058 1.33331 11.9999 1.33331C6.13325 1.33331 1.33325 6.13331 1.33325 12C1.33325 17.8666 6.13325 22.6666 11.9999 22.6666C17.6653 22.6666 22.3359 18.1904 22.6498 12.6C22.6684 12.2691 22.398 12 22.0666 12H21.9333ZM13.3333 12C13.3333 12.7333 12.7333 13.3333 11.9999 13.3333C11.2666 13.3333 10.6666 12.7333 10.6666 12C10.6666 11.2666 11.2666 10.6666 11.9999 10.6666C12.7333 10.6666 13.3333 11.2666 13.3333 12Z" fill="white"/>
</g>
<defs>
<clipPath id="clip0_305_1312">
<rect width="24" height="24" fill="white"/>
</clipPath>
</defs>
</svg>
