<svg width="32" height="32" viewBox="0 0 32 32" fill="none" xmlns="http://www.w3.org/2000/svg">
<g clip-path="url(#clip0_304_1081)">
<path fill-rule="evenodd" clip-rule="evenodd" d="M32.0001 16C32.0001 24.8366 24.8366 32.0001 16 32.0001C7.16346 32.0001 0 24.8366 0 16C0 7.16346 7.16346 0 16 0C24.8366 0 32.0001 7.16346 32.0001 16ZM8.87719 13.1088C8.85593 13.5102 8.86039 13.8548 8.8742 14.1279H12.2644C12.2865 13.7779 12.2881 13.4374 12.2737 13.1088H8.87719ZM10.3972 8.10089C9.36386 9.84072 9.01653 11.5336 8.90938 12.6711L12.2447 12.6711C12.1519 11.6199 11.9046 10.7124 11.664 10.0382C11.2385 8.84517 10.753 8.12026 10.7325 8.08999C10.693 8.03156 10.6295 7.99799 10.5622 8.00009C10.4951 8.00228 10.4334 8.03999 10.3972 8.10089ZM8.5068 14.7846V21.2051C8.54892 21.1996 8.59184 21.1966 8.63535 21.1966H12.5115C12.555 21.1966 12.5979 21.1995 12.64 21.2051V14.7846C12.64 14.6637 12.5491 14.5657 12.4369 14.5657H8.70992C8.59775 14.5657 8.5068 14.6637 8.5068 14.7846ZM12.5116 23.004H8.63546C8.28506 23.004 8 22.6968 8 22.3191C8 21.9416 8.28506 21.6344 8.63542 21.6344H12.5116C12.8619 21.6344 13.147 21.9416 13.147 22.3191C13.147 22.6968 12.862 23.004 12.5116 23.004ZM8.76472 24H12.3829C12.4951 24 12.586 23.902 12.586 23.7811C12.586 23.7541 12.5815 23.7283 12.5732 23.7044L12.5037 23.4417H8.67267L8.57629 23.6993C8.55104 23.7667 8.55854 23.8433 8.59633 23.9036C8.63413 23.9638 8.69721 24 8.76472 24ZM19.7272 14.1279C19.7134 13.8548 19.7089 13.5102 19.7302 13.1088H23.1267C23.1411 13.4374 23.1395 13.7779 23.1174 14.1279H19.7272ZM19.7624 12.6711C19.8695 11.5336 20.2168 9.84072 21.2502 8.10089C21.2864 8.03999 21.3481 8.00228 21.4152 8.00009C21.4825 7.99799 21.546 8.03156 21.5855 8.08999C21.606 8.12026 22.0915 8.84517 22.517 10.0382C22.7575 10.7124 23.0048 11.6199 23.0977 12.6711L19.7624 12.6711ZM19.3598 14.7846V21.2051C19.4019 21.1996 19.4448 21.1966 19.4883 21.1966H23.3645C23.408 21.1966 23.4509 21.1995 23.493 21.2051V14.7846C23.493 14.6637 23.4021 14.5657 23.2899 14.5657H19.5629C19.4507 14.5657 19.3598 14.6637 19.3598 14.7846ZM23.3645 23.0039H19.4884C19.1381 23.0039 18.853 22.6967 18.853 22.3191C18.853 21.9415 19.1381 21.6343 19.4884 21.6343H23.3645C23.7149 21.6343 24 21.9415 24 22.3191C24 22.6967 23.7149 23.0039 23.3645 23.0039ZM19.6177 23.9999H23.2359C23.3481 23.9999 23.439 23.9019 23.439 23.7811C23.439 23.7541 23.4345 23.7282 23.4261 23.7044L23.3567 23.4417H19.5257L19.4293 23.6992C19.404 23.7667 19.4115 23.8432 19.4493 23.9035C19.4871 23.9638 19.5502 23.9999 19.6177 23.9999ZM14.3009 14.128C14.2871 13.8549 14.2826 13.5102 14.3039 13.1089H17.7004C17.7148 13.4374 17.7132 13.7779 17.6911 14.128H14.3009ZM14.3361 12.6711C14.4432 11.5336 14.7905 9.84076 15.8239 8.10093C15.8601 8.04004 15.9218 8.00233 15.9889 8.00014C16.0562 7.99803 16.1197 8.0316 16.1592 8.09003C16.1797 8.1203 16.6652 8.84521 17.0907 10.0382C17.3312 10.7125 17.5785 11.6199 17.6714 12.6711L14.3361 12.6711ZM13.9335 14.7846V21.2052C13.9756 21.1996 14.0185 21.1966 14.062 21.1966H17.9382C17.9817 21.1966 18.0246 21.1996 18.0667 21.2052V14.7846C18.0667 14.6637 17.9758 14.5657 17.8636 14.5657H14.1366C14.0244 14.5657 13.9335 14.6637 13.9335 14.7846ZM17.9382 23.004H14.0621C13.7117 23.004 13.4267 22.6968 13.4267 22.3191C13.4267 21.9416 13.7117 21.6344 14.0621 21.6344H17.9382C18.2886 21.6344 18.5737 21.9416 18.5737 22.3191C18.5737 22.6967 18.2886 23.004 17.9382 23.004ZM14.1914 24H17.8096C17.9218 24 18.0127 23.902 18.0127 23.7811C18.0127 23.7541 18.0082 23.7283 17.9998 23.7044L17.9304 23.4417H14.0993L14.003 23.6993C13.9777 23.7667 13.9852 23.8433 14.023 23.9036C14.0608 23.9638 14.1239 24 14.1914 24Z" fill="white"/>
</g>
<defs>
<clipPath id="clip0_304_1081">
<rect width="32" height="32" fill="white"/>
</clipPath>
</defs>
</svg>
