<svg width="24" height="24" viewBox="0 0 24 24" fill="none" xmlns="http://www.w3.org/2000/svg">
<path d="M13.6689 11.3555H12.6445V10.3311C12.6445 9.97531 12.3558 9.68656 12 9.68656C11.6442 9.68656 11.3555 9.97531 11.3555 10.3311V11.3555H10.3311C9.97531 11.3555 9.68656 11.6442 9.68656 12C9.68656 12.3558 9.97531 12.6445 10.3311 12.6445H11.3555V13.6689C11.3555 14.0247 11.6442 14.3134 12 14.3134C12.3558 14.3134 12.6445 14.0247 12.6445 13.6689V12.6445H13.6689C14.0225 12.6445 14.3134 12.3536 14.3134 12C14.3134 11.6464 14.0225 11.3555 13.6689 11.3555Z" fill="white"/>
<path d="M22.3555 11.3555H21.1293C20.8123 6.82141 17.1786 3.18767 12.6445 2.87069V1.64453C12.6445 1.29094 12.3536 1 12 1C11.6464 1 11.3555 1.29094 11.3555 1.64453V2.87069C6.82141 3.18767 3.18767 6.82141 2.87069 11.3555H1.64453C1.28858 11.3555 1 11.644 1 12C1 12.356 1.28858 12.6445 1.64453 12.6445H2.87069C3.18767 17.1786 6.82141 20.8123 11.3555 21.1293V22.3555C11.3555 22.7091 11.6464 23 12 23C12.3536 23 12.6445 22.7091 12.6445 22.3555V21.1293C17.1786 20.8123 20.8123 17.1786 21.1293 12.6445H22.3555C22.7114 12.6445 23 12.356 23 12C23 11.644 22.7114 11.3555 22.3555 11.3555ZM19.8367 11.3555H18.5426C18.2384 8.24406 15.7559 5.76163 12.6445 5.45741V4.16327C16.4675 4.47488 19.5251 7.5325 19.8367 11.3555ZM16.2369 12.6445H17.2458C16.9526 15.0445 15.0445 16.9526 12.6445 17.2458V16.2367C12.6445 15.8831 12.3536 15.5922 12 15.5922C11.6464 15.5922 11.3555 15.8831 11.3555 16.2367V17.2458C8.95554 16.9526 7.04738 15.0445 6.7542 12.6445H7.76302C8.11898 12.6445 8.40755 12.356 8.40755 12C8.40755 11.644 8.11898 11.3555 7.76302 11.3555H6.7542C7.04738 8.95554 8.95554 7.04738 11.3555 6.7542V7.76328C11.3555 8.11687 11.6464 8.40781 12 8.40781C12.3536 8.40781 12.6445 8.11687 12.6445 7.76328V6.7542C15.0445 7.04734 16.9526 8.95554 17.2458 11.3555H16.237C15.881 11.3555 15.5924 11.644 15.5924 12C15.5924 12.356 15.881 12.6445 16.2369 12.6445ZM11.3555 4.16327V5.45741C8.24406 5.76163 5.76163 8.24406 5.45741 11.3555H4.16327C4.47493 7.5325 7.5325 4.47488 11.3555 4.16327ZM4.16327 12.6445H5.45741C5.76163 15.7559 8.24406 18.2384 11.3555 18.5426V19.8367C7.5325 19.5251 4.47493 16.4675 4.16327 12.6445ZM12.6445 19.8367V18.5426C15.7559 18.2384 18.2384 15.7559 18.5426 12.6445H19.8367C19.5251 16.4675 16.4675 19.5251 12.6445 19.8367Z" fill="white"/>
<path d="M1.64453 5.862C1.99812 5.862 2.28906 5.57106 2.28906 5.21747V2.28906H5.21743C5.57102 2.28906 5.86196 1.99812 5.86196 1.64453C5.86196 1.29094 5.57102 1 5.21743 1H1.64453C1.28858 1 1 1.28858 1 1.64453V5.21747C1 5.57106 1.29094 5.862 1.64453 5.862Z" fill="white"/>
<path d="M5.21743 21.7109H2.28906V18.7825C2.28906 18.4289 1.99812 18.138 1.64453 18.138C1.29094 18.138 1 18.4289 1 18.7825V22.3555C1 22.7114 1.28858 23 1.64453 23H5.21743C5.57338 23 5.86196 22.7114 5.86196 22.3555C5.86196 21.9995 5.57342 21.7109 5.21743 21.7109Z" fill="white"/>
<path d="M22.3555 1H18.7826C18.429 1 18.138 1.29094 18.138 1.64453C18.138 1.99812 18.429 2.28906 18.7826 2.28906H21.7109V5.21747C21.7109 5.57106 22.0019 5.862 22.3555 5.862C22.7091 5.862 23 5.57106 23 5.21747V1.64453C23 1.28858 22.7114 1 22.3555 1Z" fill="white"/>
<path d="M22.3555 18.138C21.9995 18.138 21.7109 18.4266 21.7109 18.7825V21.7109H18.7826C18.4266 21.7109 18.138 21.9995 18.138 22.3555C18.138 22.7114 18.4266 23 18.7826 23H22.3555C22.7114 23 23 22.7114 23 22.3555V18.7825C23 18.4266 22.7114 18.138 22.3555 18.138Z" fill="white"/>
</svg>
