<svg width="24" height="24" viewBox="0 0 24 24" fill="none" xmlns="http://www.w3.org/2000/svg">
<path fill-rule="evenodd" clip-rule="evenodd" d="M2.33491 23C1.97894 23 1.69038 22.7114 1.69038 22.3555V9.19272H1.64453C1.28857 9.19272 1 8.90416 1 8.54819V5.09634C1 4.74037 1.28857 4.45181 1.64453 4.45181H7.90364V1.64453C7.90364 1.28857 8.1922 1 8.54817 1H15.4518C15.8078 1 16.0964 1.28857 16.0964 1.64453V4.45181H22.3555C22.7114 4.45181 23 4.74037 23 5.09634V8.54819C23 8.90416 22.7114 9.19272 22.3555 9.19272H22.3096V22.3555C22.3096 22.7114 22.0211 23 21.6651 23H2.33491ZM21.0206 9.19272H2.97944V21.7109H21.0206V9.19272ZM9.1927 2.28906V4.45181H14.8073V2.28906H9.1927Z" fill="white"/>
<path d="M4.44824 17.0792V13.6024C4.44824 13.37 4.63544 13.1816 4.86635 13.1816H5.51255C5.74347 13.1816 5.93066 13.37 5.93066 13.6024V17.0792C5.93066 17.3116 5.74347 17.5 5.51255 17.5H4.86635C4.63544 17.5 4.44824 17.3116 4.44824 17.0792Z" fill="white"/>
<path d="M12.9883 13.7617C12.9883 13.6193 13.1037 13.5039 13.2461 13.5039H13.5005C14.0076 13.503 14.5076 13.6185 14.9622 13.841C15.011 13.8648 15.0256 13.9265 15.0255 13.9808V16.7008C15.0256 16.7551 15.011 16.8168 14.9623 16.8407C14.5078 17.0631 14.008 17.1786 13.5011 17.1777H13.2461C13.1037 17.1777 12.9883 17.0623 12.9883 16.9199V13.7617Z" fill="white"/>
<path d="M15.373 16.4297C15.373 16.5747 15.4931 16.6915 15.638 16.6844C17.9263 16.5725 19.0848 15.8249 19.4889 15.4958C19.5907 15.4128 19.5907 15.2686 19.4889 15.1857C19.0848 14.8566 17.9262 14.1092 15.638 13.9972C15.4931 13.9901 15.373 14.1069 15.373 14.252V16.4297Z" fill="white"/>
<path d="M6.32345 17.0798L6.32345 13.6019C6.3233 13.5497 6.36338 13.5039 6.41558 13.5039H12.3438C12.4861 13.5039 12.6016 13.6193 12.6016 13.7617V16.9199C12.6016 17.0623 12.4861 17.1777 12.3438 17.1777H6.41558C6.36338 17.1777 6.3233 17.132 6.32345 17.0798Z" fill="white"/>
</svg>
