<svg width="32" height="32" viewBox="0 0 32 32" fill="none" xmlns="http://www.w3.org/2000/svg">
<g clip-path="url(#clip0_304_1030)">
<path fill-rule="evenodd" clip-rule="evenodd" d="M32.0001 16C32.0001 24.8366 24.8366 32.0001 16 32.0001C7.16346 32.0001 0 24.8366 0 16C0 7.16346 7.16346 0 16 0C24.8366 0 32.0001 7.16346 32.0001 16ZM24.4246 9.63359C24.5775 9.4807 24.8356 9.53599 24.8886 9.7456C25.1926 10.9478 24.8743 12.2751 23.9337 13.2156C23.0627 14.0866 21.8605 14.4237 20.7328 14.2275C20.0732 14.1128 19.3987 14.3215 18.9253 14.7949L14.7949 18.9254C14.3214 19.3988 14.1127 20.0732 14.2274 20.7328C14.4236 21.8606 14.0866 23.0628 13.2156 23.9338C12.275 24.8743 10.9477 25.1927 9.74553 24.8887C9.53592 24.8357 9.48064 24.5775 9.63352 24.4247L11.3312 22.7269C11.407 22.6511 11.4366 22.5407 11.4089 22.4372L11.0637 21.1485C11.0359 21.045 10.9551 20.9641 10.8515 20.9364L9.5629 20.5912C9.45937 20.5634 9.34891 20.593 9.27313 20.6688L7.57541 22.3665C7.42252 22.5194 7.16438 22.4641 7.11137 22.2545C6.80737 21.0523 7.12574 19.725 8.0663 18.7845C8.93828 17.9125 10.1423 17.5757 11.2711 17.7734C11.9315 17.889 12.6069 17.6804 13.081 17.2064L17.2063 13.0811C17.6803 12.607 17.8889 11.9315 17.7733 11.2712C17.5756 10.1423 17.9124 8.93835 18.7844 8.06637C19.725 7.1258 21.0523 6.80743 22.2545 7.11144C22.4641 7.16444 22.5194 7.42258 22.3665 7.57547L20.6687 9.27322C20.5929 9.34901 20.5633 9.45947 20.5911 9.563L20.9363 10.8516C20.9641 10.9551 21.0449 11.036 21.1485 11.0637L22.4371 11.409C22.5406 11.4367 22.6511 11.4071 22.7268 11.3313L24.4246 9.63359Z" fill="white"/>
</g>
<defs>
<clipPath id="clip0_304_1030">
<rect width="32" height="32" fill="white"/>
</clipPath>
</defs>
</svg>
