<svg width="24" height="24" viewBox="0 0 24 24" fill="none" xmlns="http://www.w3.org/2000/svg">
<path d="M2.01515 2L2.00001 3.1366C1.99934 3.18725 2.02515 3.23433 2.06751 3.25972L13.0407 9.83785C13.1413 9.89817 13.1264 10.053 13.0163 10.0917L11.1951 10.7311C11.0725 10.7741 11.0727 10.9538 11.1955 10.9965L13.0446 11.6396C13.14 11.6728 13.1683 11.7982 13.097 11.8717L7.30362 17.8388C7.25072 17.8933 7.16519 17.8932 7.11241 17.8386L6.53378 17.2398C6.4668 17.1705 6.35352 17.192 6.31464 17.2814L4.34782 21.8021C4.29892 21.9145 4.40402 22.0327 4.51633 21.9917L9.23244 20.2682C9.32413 20.2347 9.35279 20.115 9.28683 20.0411L8.77451 19.4668C8.72523 19.4115 8.72688 19.3259 8.77826 19.2727L14.9483 12.8878C15.0212 12.8124 15.1455 12.8456 15.1741 12.948L15.5161 14.1741C15.5529 14.3061 15.7322 14.3101 15.7745 14.1798L16.5859 11.6766C16.5999 11.6331 16.6337 11.5995 16.6762 11.5867L18.5432 11.022C18.6745 10.9823 18.6725 10.7891 18.5404 10.7523L16.6483 10.2245C16.6025 10.2117 16.5665 10.1751 16.5534 10.1279L15.7332 7.17355C15.6957 7.03872 15.5113 7.03822 15.4732 7.17283L15.0545 8.65119C15.0298 8.73833 14.9328 8.77851 14.8568 8.73304L3.67251 2.03791C3.65237 2.02586 3.62956 2.01938 3.6063 2.0191L2.01515 2ZM16.8735 4.73505C16.6819 4.73593 16.4913 4.74031 16.302 4.74827C16.2197 4.75176 16.1377 4.75605 16.056 4.76104C15.97 4.7663 15.9115 4.85287 15.9353 4.9385L17.19 9.45816C17.2031 9.50533 17.239 9.54197 17.2848 9.55474L21.4672 10.7213C21.5448 10.7429 21.6235 10.6902 21.6357 10.6079C21.8766 8.97737 21.9849 7.26779 22 5.61037C22.0006 5.54828 21.9615 5.49332 21.904 5.47572C20.4262 5.02402 18.719 4.74864 17.0654 4.73549C17.0013 4.73497 16.9374 4.73484 16.8735 4.73505ZM15.2565 5.0295C15.2837 4.93334 15.2073 4.83964 15.1113 4.85262C13.9293 5.01245 12.8516 5.33796 11.9958 5.84026C11.907 5.8924 11.9089 6.02324 11.9973 6.07615L14.3812 7.50327C14.4571 7.54874 14.5542 7.50856 14.5789 7.42143L15.2565 5.0295ZM21.5819 10.9551L17.2943 12.2519C17.2518 12.2647 17.2181 12.2983 17.204 12.3418L15.7177 16.9267C15.6755 17.0569 15.4961 17.053 15.4593 16.921L14.7859 14.5065C14.7573 14.4041 14.633 14.3709 14.5601 14.4463L13.1404 15.9153C13.0983 15.9588 13.0886 16.0259 13.1172 16.0799C13.9036 17.5685 15.0311 18.7062 16.6669 19.3664C16.6977 19.3788 16.7321 19.379 16.7629 19.3666C18.7441 18.5734 20.0449 16.6163 20.861 14.0627C21.1708 13.0936 21.4069 12.0444 21.5819 10.9551Z" fill="white"/>
</svg>
