<svg width="24" height="24" viewBox="0 0 24 24" fill="none" xmlns="http://www.w3.org/2000/svg">
<path d="M22.9964 17.4875V7.08409C22.9954 6.60716 22.8169 6.15005 22.4999 5.81281C22.1829 5.47557 21.7532 5.28566 21.3049 5.28465H15.876V3.6264C15.8755 3.19521 15.7143 2.78182 15.4277 2.47692C15.1411 2.17202 14.7525 2.00051 14.3471 2H9.65285C9.24753 2.00051 8.85895 2.17202 8.57234 2.47692C8.28574 2.78182 8.12451 3.19521 8.12403 3.6264V5.28465H2.69148C2.24316 5.28566 1.81348 5.47557 1.49647 5.81281C1.17947 6.15005 1.00095 6.60716 1 7.08409V19.2006C1 19.6778 1.17821 20.1355 1.49542 20.473C1.81263 20.8104 2.24287 21 2.69148 21H21.3049C21.7535 21 22.1838 20.8104 22.501 20.473C22.8182 20.1355 22.9964 19.6778 22.9964 19.2006V17.5623C22.9964 17.5496 23 17.5373 23 17.5239C23 17.5105 22.9971 17.5001 22.9964 17.4875ZM9.65213 3.15103H14.3471C14.4656 3.15123 14.5792 3.20138 14.6629 3.29048C14.7467 3.37959 14.7938 3.50039 14.794 3.6264V5.28465H9.206V3.6264C9.20619 3.50039 9.25333 3.37959 9.33709 3.29048C9.42085 3.20138 9.53368 3.15123 9.65213 3.15103ZM21.3049 19.849H2.69148C2.52994 19.8486 2.37513 19.7801 2.26091 19.6586C2.14669 19.5371 2.08235 19.3724 2.08197 19.2006V19.849L20.4973 20.1238C20.6408 20.1238 20.3958 18.7701 20.4973 18.6622C20.5987 18.5542 20.6557 18.4078 20.6557 18.2552C20.6557 18.1026 20.5987 17.9562 20.4973 17.8483C20.3958 17.7403 20.2582 17.6797 20.1148 17.6797H2.08197V7.08409C2.08235 6.91224 2.14669 6.74755 2.26091 6.62604C2.37513 6.50452 2.52994 6.43608 2.69148 6.43567H8.63436C8.64446 6.43567 8.65456 6.43913 8.66502 6.43913C8.67548 6.43913 8.68557 6.43644 8.69567 6.43567H15.3043C15.3144 6.43567 15.3245 6.43913 15.335 6.43913C15.3454 6.43913 15.3555 6.43644 15.3656 6.43567H21.3049C21.4665 6.43608 21.6213 6.50452 21.7355 6.62604C21.8497 6.74755 21.914 6.91224 21.9144 7.08409V17.6797H20.1725C20.029 17.6797 19.8914 17.7403 19.7899 17.8483C19.6885 17.9562 19.6315 18.1026 19.6315 18.2552C19.6315 18.4078 19.6885 18.5542 19.7899 18.6622C19.8914 18.7701 17.7729 19.7365 19.2131 20.1969H21.9144V19.2006C21.914 19.3724 21.8497 19.5371 21.7355 19.6586C21.6213 19.7801 21.4665 19.8486 21.3049 19.849Z" fill="white"/>
<path d="M15.2062 10.4988H13.47V8.76251C13.47 8.61333 13.4107 8.47025 13.3052 8.36476C13.1997 8.25928 13.0566 8.20001 12.9075 8.20001H11.0925C10.9433 8.20001 10.8002 8.25928 10.6947 8.36476C10.5892 8.47025 10.53 8.61333 10.53 8.76251V10.4988H8.7937C8.64452 10.4988 8.50144 10.558 8.39595 10.6635C8.29046 10.769 8.2312 10.9121 8.2312 11.0613V12.8763C8.2312 13.0254 8.29046 13.1685 8.39595 13.274C8.50144 13.3795 8.64452 13.4388 8.7937 13.4388H10.53V15.175C10.53 15.3242 10.5892 15.4673 10.6947 15.5728C10.8002 15.6782 10.9433 15.7375 11.0925 15.7375H12.9075C13.0566 15.7375 13.1997 15.6782 13.3052 15.5728C13.4107 15.4673 13.47 15.3242 13.47 15.175V13.4388H15.2062C15.3554 13.4388 15.4985 13.3795 15.6039 13.274C15.7094 13.1685 15.7687 13.0254 15.7687 12.8763V11.0613C15.7687 10.9121 15.7094 10.769 15.6039 10.6635C15.4985 10.558 15.3554 10.4988 15.2062 10.4988Z" fill="white"/>
</svg>
