<svg width="24" height="24" viewBox="0 0 24 24" fill="none" xmlns="http://www.w3.org/2000/svg">
<path d="M12 8.9375L10.591 8.05007C8.9922 7.58196 7.34229 8.60268 6.98438 10.2813C6.75761 11.3449 7.10815 12.4518 7.89927 13.1703L12 16.8946L16.1007 13.1703C16.8919 12.4518 17.2424 11.3449 17.0156 10.2814C16.6577 8.60276 15.0078 7.582 13.409 8.05015L12 8.9375Z" fill="white"/>
<path d="M11.8166 4.01311L11.4449 4.39771L12.2896 5.27167L14.0793 3.42015L12.2233 1.5L11.3785 2.37396L11.7688 2.77776C9.45141 2.83781 7.28132 3.79975 5.636 5.50189C3.93614 7.26052 3 9.59878 3 12.0858H4.19471C4.19471 7.69664 7.59713 4.11429 11.8166 4.01311Z" fill="white"/>
<path d="M21 11.9142H19.8053C19.8053 16.3016 16.4043 19.8824 12.1866 19.9835L12.5551 19.6023L11.7104 18.7283L9.92073 20.5798L11.7767 22.5L12.6215 21.626L12.2281 21.2191C14.547 21.1606 16.7187 20.1988 18.3649 18.4957C20.0642 16.7378 21 14.4004 21 11.9142Z" fill="white"/>
<path d="M19.5834 9.99421L20.7441 9.70132C20.0816 6.8913 18.1512 4.52494 15.5802 3.3713L15.1048 4.50521C17.3348 5.50583 19.009 7.5578 19.5834 9.99421Z" fill="white"/>
<path d="M4.4007 13.7364L3.23656 14.0142C3.8804 16.9017 5.84196 19.3199 8.48391 20.4826L8.95161 19.3453C6.66016 18.3368 4.95887 16.24 4.4007 13.7364Z" fill="white"/>
</svg>
