<svg width="24" height="24" viewBox="0 0 24 24" fill="none" xmlns="http://www.w3.org/2000/svg">
<path d="M10.7275 3.99499C11.2128 3.78929 11.6679 3.54905 12 3.33898C12.3321 3.54905 12.7872 3.78929 13.2725 3.99499C13.7633 4.203 14.3269 4.39386 14.8571 4.47208V5.72857C14.8571 6.44497 14.4944 7.41313 13.8871 8.39107C13.3611 9.23817 12.6843 10.04 12 10.6257C11.3157 10.04 10.6389 9.23817 10.1129 8.39107C9.50564 7.41313 9.14286 6.44497 9.14286 5.72857V4.47208C9.67306 4.39386 10.2367 4.203 10.7275 3.99499Z" fill="white"/>
<path fill-rule="evenodd" clip-rule="evenodd" d="M16 3.5C14.6667 3.5 12.6667 2.5 12 2C11.3333 2.5 9.33333 3.5 8 3.5V5.5C8 7.5 10 10.5 12 12C14 10.5 16 7.5 16 5.5V3.5ZM12 2.7619C12.5556 3.18571 14.2222 4.03333 15.3333 4.03333V5.72857C15.3333 7.42381 13.6667 9.96667 12 11.2381C10.3333 9.96667 8.66667 7.42381 8.66667 5.72857V4.03333C9.77778 4.03333 11.4444 3.18571 12 2.7619Z" fill="white"/>
<path d="M18.9062 10V10.6581H19.6562V10.0009L18.9062 10ZM3.99953 10.0009V10.6586H4.75V10.0009H3.99953ZM22.6562 11.5009H15.9953V12.2491H22.6562V11.5009ZM7.65625 11.5009H1V12.25H7.65625V11.5009ZM19.6562 13.0914H18.9016V14.4025L19.5438 14.4072H19.6562V13.0914ZM4.75 13.0961H3.99859V14.4119H4.75V13.0961ZM17.5 15.2463L17.4953 16.7509H13.8156L13.0656 15.2509H10.5906L9.84063 16.7556L6.15625 16.7509V15.2509H2.40766L1.84328 17.5009L9.15625 18.8791V18.5791C9.16094 17.1072 10.3609 15.9119 11.8328 15.9072C13.3 15.9072 14.5047 17.1072 14.5 18.5791C14.5 18.7712 14.5047 18.8791 14.5047 18.8791L21.8125 17.5056L21.25 15.2509L17.5 15.2463ZM11.8328 16.7509C10.8203 16.7509 10.0047 17.5666 10 18.5838C10.0047 19.5916 10.8203 20.4072 11.8328 20.4072C12.8453 20.4072 13.6609 19.5916 13.6562 18.5791C13.6609 17.5712 12.8453 16.7509 11.8328 16.7509ZM11.8234 17.4072C12.4703 17.4072 12.9953 17.9369 13 18.5791C13 19.2212 12.4703 19.7556 11.8281 19.7509C11.1859 19.7509 10.6516 19.2213 10.6562 18.5838C10.6562 17.9369 11.1859 17.4119 11.8234 17.4072ZM9.25937 19.3056L9.90625 21.9072H13.75L14.4016 19.3103C14.0828 20.4306 13.0516 21.2509 11.8328 21.2509C10.6094 21.2509 9.57812 20.4259 9.25937 19.3056Z" fill="white"/>
</svg>
