<svg width="32" height="32" viewBox="0 0 32 32" fill="none" xmlns="http://www.w3.org/2000/svg">
<path fill-rule="evenodd" clip-rule="evenodd" d="M32 16.0001C32 24.8366 24.8367 32.0001 16 32.0001C7.16357 32.0001 0 24.8366 0 16.0001C0 7.16345 7.16357 0 16 0C24.8367 0 32 7.16345 32 16.0001ZM18.2974 8.19653C18.3616 8.28064 18.3999 8.38586 18.3999 8.5V13.0969C18.3999 13.373 18.6238 13.5969 18.8999 13.5969H23.5C23.7761 13.5969 24 13.8207 24 14.0969V17.9031C24 18.1793 23.7761 18.4031 23.5 18.4031H18.8999C18.6238 18.4031 18.3999 18.627 18.3999 18.9031V23.5C18.3999 23.7761 18.176 24 17.8999 24H14.1001C13.824 24 13.6001 23.7761 13.6001 23.5V18.9031C13.6001 18.627 13.3762 18.4031 13.1001 18.4031H8.5C8.22388 18.4031 8 18.1793 8 17.9031V14.0969C8 13.8207 8.22388 13.5969 8.5 13.5969H13.1001C13.3762 13.5969 13.6001 13.373 13.6001 13.0969V8.5C13.6001 8.22388 13.824 8 14.1001 8H17.8999C18.062 8 18.2061 8.07709 18.2974 8.19653Z" fill="white"/>
</svg>
