<svg width="32" height="32" viewBox="0 0 32 32" fill="none" xmlns="http://www.w3.org/2000/svg">
<g clip-path="url(#clip0_304_1004)">
<path fill-rule="evenodd" clip-rule="evenodd" d="M32.0001 16C32.0001 24.8366 24.8366 32.0001 16 32.0001C7.16346 32.0001 0 24.8366 0 16C0 7.16346 7.16346 0 16 0C24.8366 0 32.0001 7.16346 32.0001 16ZM19.7859 10.4093L20.6305 9.56462L19.7829 8.71698C19.6814 8.61541 19.6814 8.45086 19.7829 8.34933C19.8845 8.24776 20.0491 8.24776 20.1506 8.34933L20.9982 9.19694L24.1385 6.05663C24.1873 6.00787 24.2534 5.98047 24.3224 5.98047C24.3913 5.98047 24.4575 6.00787 24.5063 6.05663L25.4741 7.02457C25.5756 7.12614 25.5756 7.29074 25.4741 7.39227L21.1215 11.7449L21.3239 11.9472C21.3726 11.996 21.4 12.0621 21.4 12.1311C21.4 12.2 21.3726 12.2662 21.3239 12.3149L19.1769 14.4618L17.2529 12.5377C17.1894 12.4742 17.1164 12.4231 17.0374 12.3854L19.2159 10.207C19.3174 10.1054 19.482 10.1054 19.5836 10.207L19.7859 10.4093ZM12.9468 20.5057C12.819 20.5057 12.7076 20.4115 12.6896 20.2814C12.6828 20.2327 12.6901 20.1854 12.7081 20.1433C12.5758 20.0351 12.399 19.8764 12.2124 19.7056L17.9489 13.9691L19.1338 15.154C19.2353 15.2555 19.2353 15.4201 19.1338 15.5216L14.4019 20.2535C14.3619 20.2936 14.3099 20.3194 14.2537 20.3272L12.9828 20.5032C12.9783 20.5038 12.9738 20.5043 12.9693 20.5047C12.9618 20.5054 12.9542 20.5057 12.9468 20.5057ZM11.8298 19.3528C11.5137 19.061 11.2393 18.8105 11.1847 18.7972C11.0452 18.7634 10.9595 18.6229 10.9933 18.4833L11.3061 17.1927C11.3173 17.1463 11.3412 17.1039 11.3749 17.0701L15.3247 13.1204C15.3622 13.0829 15.4102 13.0578 15.4624 13.0484L16.6552 12.8333C16.739 12.8181 16.8249 12.8451 16.8852 12.9053L17.5813 13.6014L11.8298 19.3528ZM9.38844 26.0196C9.32187 26.0196 9.25535 25.9942 9.20461 25.9435L6.52586 23.2648C6.47711 23.216 6.44971 23.1499 6.44971 23.0809C6.44971 23.0119 6.47711 22.9458 6.52586 22.897L10.5429 18.88C10.8803 19.1336 11.2069 19.4516 11.5321 19.7683C11.7471 19.9776 11.9615 20.1863 12.178 20.3755C12.7134 20.8726 12.6484 20.9344 12.2952 21.2705C12.2445 21.3188 12.1874 21.3731 12.1257 21.4347L12.0139 23.4084C12.0104 23.4722 11.9834 23.5324 11.9382 23.5776L9.57236 25.9435C9.52153 25.9942 9.45496 26.0196 9.38844 26.0196ZM11.4706 15.3425L11.6266 16.0832L14.2214 13.4884L13.4547 13.3498C13.3708 13.3345 13.2848 13.3615 13.2245 13.4218L11.5413 15.1051C11.4791 15.1673 11.4525 15.2566 11.4706 15.3425ZM16.5036 23.5746C16.5109 23.5753 16.5181 23.5755 16.5254 23.5755C16.594 23.5755 16.6602 23.5483 16.7092 23.4994L17.9998 22.2089C18.0895 22.1192 18.1014 21.9778 18.0279 21.8745L16.817 20.1712L18.3242 18.664C19.8392 19.6398 21.5985 19.8478 21.6978 19.8588C21.7075 19.8599 21.7171 19.8604 21.7266 19.8604C21.8279 19.8604 21.9212 19.8012 21.9635 19.7073L22.863 17.7128C22.8993 17.6324 22.8922 17.539 22.8444 17.4649C22.7965 17.3907 22.7143 17.3459 22.626 17.3459C20.9897 17.3459 19.8602 16.6476 19.2534 16.1373L17.434 17.9567C17.5804 18.1013 17.7344 18.2352 17.8936 18.3592L16.5115 19.7413L16.1533 19.2375L14.7696 20.6212C14.6755 20.7154 14.5592 20.7835 14.4323 20.8197L16.3135 23.4662C16.3578 23.5286 16.4274 23.5683 16.5036 23.5746Z" fill="white"/>
</g>
<defs>
<clipPath id="clip0_304_1004">
<rect width="32" height="32" fill="white"/>
</clipPath>
</defs>
</svg>
