<svg width="23" height="24" viewBox="0 0 23 24" fill="none" xmlns="http://www.w3.org/2000/svg">
<path d="M16.3888 2L16.2561 2.03341L15.3375 3.68502L18.7162 7.52696C19.1236 7.16835 19.584 6.84523 19.973 6.46834C20.0265 6.41666 20.1088 6.36603 20.0863 6.28042L16.3888 2ZM20.3311 5.50577C20.3668 5.52613 20.4098 5.50994 20.4438 5.49167C20.4874 5.46818 20.9042 5.08712 20.9341 5.04066C21.0033 4.93104 21.0227 4.8162 20.9734 4.69249C20.6394 4.28428 20.3002 3.8766 19.9536 3.47883C19.7145 3.20426 19.207 2.54706 18.9522 2.36436C18.572 2.09187 18.2984 2.63267 18.0068 2.79553L20.3311 5.50577ZM11.7538 8.20765L14.1327 10.9435L17.8417 7.67991L15.4723 4.96497L11.7538 8.20765ZM10.1274 7.47842C9.77561 7.15321 9.07512 7.76865 9.35458 8.14867L15.8624 15.631C16.166 15.8785 16.7537 15.3685 16.6515 15.0433L10.1274 7.47842ZM6.75975 11.0604L7.99766 12.4985L10.3739 10.4204L9.14328 9.03033L6.75975 11.0604ZM17.3231 9.10863L15.962 10.3004C15.951 10.3479 16.4889 10.9784 16.5702 11.0599C16.7076 11.1977 16.782 11.2864 17.0001 11.2535C17.1265 11.2347 17.7966 10.66 17.9277 10.5327C18.0755 10.3891 18.2008 10.3045 18.1547 10.0728C18.13 9.94801 17.6723 9.42548 17.5538 9.30073C17.5119 9.25636 17.3761 9.09975 17.3231 9.10863ZM10.8693 10.991L8.49418 13.0409L8.50834 13.1296L9.41436 14.1444L11.7885 12.0898C11.5399 11.6946 11.175 11.3512 10.8693 10.991ZM18.4588 11.0301L17.7069 11.6868C18.2302 12.2626 18.7136 12.9192 19.2442 13.4825C19.4844 13.7372 19.6621 13.9888 20.0469 13.8098C20.3212 13.6819 20.4113 13.3603 20.2561 13.1025L18.4588 11.0301ZM5.5297 11.0672C5.20148 11.1403 4.81716 11.6534 5.18733 11.9379L11.6375 19.3221C11.8383 19.4699 12.0501 19.332 12.2048 19.1859C12.5581 18.8523 12.3909 18.7004 12.146 18.3872L5.7667 11.0896C5.69067 11.0526 5.6115 11.0489 5.5297 11.0672ZM12.285 12.6321L9.90983 14.6794L11.1105 16.0972L13.4778 14.0431L12.285 12.6321ZM5.87995 13.8756L3.92635 15.6112L5.99163 17.9774L7.97459 16.2418L5.87995 13.8756ZM11.5966 16.6088L11.5976 16.6646L12.5571 17.7394L14.938 15.6504L13.9754 14.5766L11.5966 16.6088ZM7.44765 17.6637L6.44149 18.5402L6.4116 18.6493L7.78741 21.7014C8.06005 22.011 8.27449 21.9363 8.59433 21.7724C8.91416 21.6085 9.14119 21.4441 9.0767 21.0453L7.44765 17.6637Z" fill="white"/>
<path d="M4.00656 22H3.77062C3.65422 21.9019 3.5394 21.7996 3.43558 21.6878C2.78124 20.9821 1.80077 19.9256 1.25443 19.166C0.786742 18.5167 1.01429 18.1257 1.52812 17.6423C2.10749 17.0974 2.78281 16.6166 3.35746 16.0612L4.63469 17.5635C4.63731 17.6778 3.80837 18.9567 3.68516 19.1989C3.51738 19.5294 3.45026 19.7168 3.49535 20.1046C3.54516 20.5373 4.2834 21.4101 4.23569 21.6967C4.21576 21.8163 4.09989 21.9306 4.00656 22Z" fill="white"/>
<path d="M11.7538 8.20765L15.4723 4.96497L17.8417 7.67991L14.1327 10.9435L11.7538 8.20765Z" fill="white"/>
<path d="M10.1274 7.47842L16.6515 15.0433C16.7537 15.3685 16.166 15.8785 15.8624 15.631L9.35458 8.14867C9.07512 7.76865 9.77561 7.15321 10.1274 7.47842Z" fill="white"/>
<path d="M5.5297 11.0672C5.6115 11.0489 5.69067 11.0526 5.7667 11.0896L12.146 18.3872C12.3909 18.7004 12.5581 18.8523 12.2048 19.1859C12.0501 19.332 11.8383 19.4699 11.6375 19.3221L5.18733 11.9379C4.81716 11.6534 5.20148 11.1403 5.5297 11.0672Z" fill="white"/>
<path d="M16.3888 2L20.0863 6.28042C20.1088 6.36603 20.0265 6.41666 19.973 6.46834C19.584 6.84523 19.1236 7.16835 18.7162 7.52696L15.3375 3.68502L16.2561 2.03341L16.3888 2Z" fill="white"/>
<path d="M5.87995 13.8756L7.97511 16.2428L5.99163 17.9774L3.92635 15.6112L5.87995 13.8756Z" fill="white"/>
<path d="M6.75975 11.0604L9.14328 9.03033L10.3739 10.4204L7.99766 12.4985L6.75975 11.0604Z" fill="white"/>
<path d="M12.285 12.6321L13.4778 14.0431L11.1105 16.0972L9.90983 14.6794L12.285 12.6321Z" fill="white"/>
<path d="M7.44765 17.6637L9.0767 21.0453C9.14119 21.4441 8.91678 21.6075 8.59433 21.7724C8.27187 21.9374 8.05953 22.011 7.78741 21.7014L6.4116 18.6493L6.44149 18.5402L7.44765 17.6637Z" fill="white"/>
<path d="M10.8693 10.991C11.175 11.3512 11.5399 11.6946 11.7885 12.0898L9.41436 14.1444L8.50834 13.1296L8.49418 13.0409L10.8693 10.991Z" fill="white"/>
<path d="M11.5966 16.6088L13.9754 14.5766L14.938 15.6504L12.5571 17.7394L11.5976 16.6646L11.5966 16.6088Z" fill="white"/>
<path d="M20.3311 5.50577L18.0068 2.79553C18.2984 2.63267 18.572 2.09187 18.9522 2.36436C19.207 2.54706 19.7145 3.20426 19.9536 3.47883C20.3002 3.8766 20.6394 4.28428 20.9734 4.69249C21.0227 4.8162 21.0033 4.93104 20.9341 5.04066C20.9042 5.08712 20.4874 5.46818 20.4438 5.49167C20.4098 5.50994 20.3668 5.52613 20.3311 5.50577Z" fill="white"/>
<path d="M18.4588 11.0301L20.2561 13.1025C20.4113 13.3603 20.3212 13.6819 20.0469 13.8098C19.6621 13.9888 19.4844 13.7372 19.2442 13.4825C18.7136 12.9192 18.2302 12.2626 17.7069 11.6868L18.4588 11.0301Z" fill="white"/>
<path d="M17.3231 9.10863C17.3761 9.09975 17.5119 9.25636 17.5538 9.30073C17.6723 9.42548 18.13 9.94801 18.1547 10.0728C18.2008 10.3045 18.0755 10.3891 17.9277 10.5327C17.7966 10.66 17.1265 11.2347 17.0001 11.2535C16.782 11.2864 16.7076 11.1977 16.5702 11.0599C16.4889 10.9784 15.951 10.3479 15.962 10.3004L17.3231 9.10863Z" fill="white"/>
</svg>
