<svg width="24" height="24" viewBox="0 0 24 24" fill="none" xmlns="http://www.w3.org/2000/svg">
<path d="M1.23099 2.62297C1.16207 2.49784 0.968679 2.57256 1.00435 2.71053L1.79602 5.77263C1.79781 5.77956 1.80022 5.78631 1.80322 5.79282L4.32067 11.251C4.37755 11.3743 4.21718 11.4824 4.12122 11.3855L3.25835 10.5135C3.1707 10.4249 3.02067 10.508 3.05171 10.6279L3.69019 13.0939C3.71586 13.193 3.84924 13.2194 3.9185 13.1432C4.39819 12.6157 5.09757 12.2869 5.85896 12.2829C5.94681 12.2824 6.03607 12.2863 6.12532 12.2947C6.19187 12.3009 6.25765 12.3096 6.32254 12.3207C6.42983 12.3389 6.52022 12.2257 6.46827 12.1314L1.23099 2.62297ZM4.74785 2.00225C4.60915 1.97742 4.54445 2.16508 4.66977 2.22871L13.0406 6.47919C13.1425 6.53091 13.2608 6.42618 13.2308 6.31718C13.2032 6.21725 13.1817 6.11464 13.1668 6.00962C13.1608 5.96652 13.1559 5.92367 13.1521 5.88091C13.1487 5.84173 13.1272 5.80607 13.0933 5.78542L9.47437 3.58447C9.35975 3.51476 9.42634 3.34027 9.55914 3.36233L13.6743 4.04588C13.7171 4.05299 13.7604 4.03709 13.7892 4.00504C13.8341 3.95514 13.881 3.90685 13.9297 3.86036C14.0059 3.78775 13.9711 3.65367 13.8668 3.63501L4.74785 2.00225ZM4.02657 3.65598C3.90904 3.56593 3.76088 3.72126 3.85926 3.83137L9.25786 9.87378C9.3564 9.98407 9.20765 10.1395 9.09023 10.0489L8.02461 9.22685C7.91203 9.14 7.76534 9.28098 7.85054 9.39414L11.7272 14.5431C11.7913 14.6283 11.9307 14.5969 11.9582 14.4944C12.1025 13.957 12.3781 13.4733 12.7485 13.0754C12.7907 13.0301 12.794 12.9609 12.7545 12.9132L10.3167 9.9726C10.2258 9.86301 10.3672 9.71517 10.4835 9.7981L13.8627 12.2067C13.898 12.2319 13.9443 12.2366 13.9845 12.2199C14.1813 12.1384 14.3867 12.0738 14.5991 12.0281C14.7054 12.0052 14.7423 11.8666 14.6564 11.8008L4.02657 3.65598Z" fill="white"/>
<path d="M20.1165 17.4772C20.0104 17.3644 19.831 17.3647 19.7207 17.4735L17.4564 19.7057C17.3461 19.8145 17.3458 19.9914 17.4605 20.0957C18.6617 21.1886 20.1654 21.7919 21.7868 21.9977C21.9627 22.0201 22.111 21.8735 22.0873 21.7002C21.8705 20.1128 21.2216 18.6522 20.1165 17.4772ZM15.6286 13.0782C15.5183 12.9694 15.3394 12.9694 15.229 13.0782L13.0013 15.2744C12.891 15.3831 12.891 15.5595 13.0013 15.6683L13.2104 15.8744C13.3208 15.9832 13.4997 15.9832 13.61 15.8744L15.8377 13.6782C15.9481 13.5695 15.9481 13.3931 15.8377 13.2843L15.6286 13.0782ZM16.7468 14.1805C16.6364 14.0717 16.4575 14.0717 16.3472 14.1805L14.1195 16.3767C14.0091 16.4855 14.0091 16.6618 14.1195 16.7706L16.4907 19.1083C16.6011 19.2171 16.7799 19.2171 16.8903 19.1083L19.118 16.9121C19.2283 16.8033 19.2283 16.627 19.118 16.5182L16.7468 14.1805Z" fill="white"/>
<path d="M19.9434 5.39064C19.8253 5.35095 19.6991 5.41834 19.6633 5.53626L18.9291 7.95611C18.8933 8.07403 18.9613 8.1987 19.0822 8.22922C20.3493 8.5489 21.6406 8.41055 22.8616 7.94821C22.9941 7.89805 23.0421 7.73929 22.9586 7.62614C22.1942 6.58955 21.1744 5.80413 19.9434 5.39064ZM15.088 3.97386C14.9684 3.93859 14.8424 4.00559 14.8066 4.12351L14.0843 6.50436C14.0485 6.62228 14.1165 6.74647 14.2361 6.78174L14.4628 6.84858C14.5824 6.88385 14.7084 6.81685 14.7442 6.69893L15.4665 4.31808C15.5023 4.20016 15.4343 4.07597 15.3147 4.0407L15.088 3.97386ZM16.3002 4.33128C16.1805 4.29601 16.0546 4.36301 16.0188 4.48094L15.2965 6.86178C15.2607 6.97971 15.3287 7.10389 15.4483 7.13916L18.0189 7.89715C18.1385 7.93242 18.2645 7.86542 18.3002 7.7475L19.0226 5.36665C19.0584 5.24873 18.9904 5.12454 18.8708 5.08927L16.3002 4.33128Z" fill="white"/>
<path d="M8.77038 17.7151C8.72871 17.5991 8.59683 17.5432 8.4808 17.5887L6.09968 18.5209C5.98365 18.5664 5.92654 18.6962 5.97724 18.8087C6.5083 19.987 7.41899 20.9001 8.54392 21.558C8.66597 21.6294 8.82205 21.568 8.86038 21.4334C9.21151 20.1994 9.20442 18.9236 8.77038 17.7151ZM6.8879 13.0809C6.84182 12.9665 6.7104 12.9106 6.59436 12.956L4.25162 13.8733C4.13559 13.9187 4.07888 14.0483 4.12496 14.1627L4.2123 14.3795C4.25838 14.4938 4.3898 14.5498 4.50584 14.5043L6.84858 13.5871C6.96461 13.5416 7.02132 13.4121 6.97524 13.2977L6.8879 13.0809ZM7.35489 14.2401C7.30881 14.1257 7.17739 14.0698 7.06136 14.1153L4.71861 15.0325C4.60258 15.0779 4.54587 15.2075 4.59196 15.3219L5.58231 17.7803C5.62839 17.8947 5.75981 17.9506 5.87585 17.9051L8.21859 16.9879C8.33462 16.9425 8.39133 16.8129 8.34525 16.6985L7.35489 14.2401Z" fill="white"/>
</svg>
