<svg width="32" height="32" viewBox="0 0 32 32" fill="none" xmlns="http://www.w3.org/2000/svg">
<g clip-path="url(#clip0_304_1053)">
<path d="M16 32.0001C24.8366 32.0001 32.0001 24.8366 32.0001 16C32.0001 7.16346 24.8366 0 16 0C7.16346 0 0 7.16346 0 16C0 24.8366 7.16346 32.0001 16 32.0001Z" fill="white"/>
<path d="M16.3574 16.3573H17.3533C17.5507 16.3573 17.7107 16.1973 17.7107 16C17.7107 15.8026 17.5507 15.6426 17.3533 15.6426H16.3574V14.6466C16.3574 14.4492 16.1975 14.2893 16 14.2893C15.8026 14.2893 15.6427 14.4492 15.6427 14.6466V15.6426H14.6468C14.4494 15.6426 14.2894 15.8026 14.2894 16C14.2894 16.1973 14.4494 16.3573 14.6468 16.3573H15.6427V17.3532C15.6427 17.5506 15.8026 17.7106 16 17.7106C16.1974 17.7106 16.3574 17.5506 16.3574 17.3532V16.3573Z" fill="black"/>
<path fill-rule="evenodd" clip-rule="evenodd" d="M14.492 26.6498C14.9849 26.7193 15.4884 26.7556 16.0001 26.7556C16.5065 26.7556 17.0046 26.7201 17.4926 26.6522C17.5318 26.667 17.5744 26.6751 17.6189 26.6751C17.7032 26.6751 17.7808 26.6459 17.8419 26.597C22.3252 25.82 25.8656 22.2579 26.6102 17.7635C26.6269 17.7222 26.6362 17.6769 26.6362 17.6296C26.6362 17.622 26.6359 17.6145 26.6354 17.6071C26.7143 17.0827 26.7556 16.5461 26.7556 15.9999C26.7556 10.0693 21.9307 5.24444 16.0001 5.24444C10.0694 5.24444 5.24446 10.0693 5.24446 15.9999C5.24446 16.5394 5.28472 17.0696 5.36193 17.588C5.36147 17.5956 5.36115 17.6033 5.36115 17.6111C5.36115 17.6579 5.37017 17.7026 5.38654 17.7435C6.12237 22.2383 9.6538 25.8045 14.1309 26.5924C14.1929 26.6441 14.2727 26.6752 14.3598 26.6752C14.4065 26.6752 14.4511 26.6661 14.492 26.6498ZM16.0437 24.32L16.0484 24.3201L16.053 24.32H16.5717C16.9521 24.32 17.2616 24.6295 17.2616 25.0099V25.9615C16.8482 26.0136 16.4273 26.0409 16.0001 26.0409C15.5655 26.0409 15.1373 26.0127 14.7171 25.9588V25.0099C14.7171 24.6295 15.0265 24.32 15.4069 24.32H16.0437ZM15.691 19.3229V23.6053L15.4067 23.6054C14.6324 23.6054 14.0023 24.2354 14.0023 25.0099V25.8413C10.0557 25.0414 6.94193 21.9192 6.15342 17.9685H6.97797C7.75247 17.9685 8.3826 17.3384 8.3826 16.5639V16.4057H12.6651C12.8625 16.4057 13.0224 16.2458 13.0224 16.0484C13.0224 15.851 12.8625 15.691 12.6651 15.691H8.3826V15.399C8.3826 14.6246 7.75253 13.9946 6.97797 13.9946H6.1605C6.9622 10.0551 10.0778 6.94665 14.0209 6.15521V6.97016C14.0209 7.74458 14.651 8.37466 15.4254 8.37466H15.632V12.6573C15.632 12.8546 15.7919 13.0146 15.9893 13.0146C16.1867 13.0146 16.3467 12.8546 16.3467 12.6573V8.37466H16.5903C17.3647 8.37466 17.9948 7.74459 17.9948 6.97016V6.1582C21.9367 6.95589 25.0483 10.07 25.843 14.0131H25.0178C24.2433 14.0131 23.6133 14.6431 23.6133 15.4176V15.691H19.3307C19.1334 15.691 18.9734 15.851 18.9734 16.0484C18.9734 16.2458 19.1334 16.4057 19.3307 16.4057H23.6133V16.5825C23.6133 17.3569 24.2433 17.987 25.0178 17.987H25.843C25.0472 21.9362 21.9269 25.0539 17.9762 25.8454V25.0099C17.9762 24.2354 17.3462 23.6053 16.5717 23.6053H16.4057V19.3229C16.4057 19.1255 16.2458 18.9655 16.0484 18.9655C15.851 18.9655 15.691 19.1255 15.691 19.3229ZM7.66788 16.0484L7.66794 16.053L7.66794 16.5639C7.66794 16.9443 7.3584 17.2538 6.978 17.2538H6.03734C5.98578 16.843 5.95916 16.4245 5.95916 16C5.95916 15.5627 5.98747 15.1319 6.04195 14.7093H6.978C7.35846 14.7093 7.66794 15.0187 7.66794 15.399V16.0438L7.66788 16.0484ZM14.7356 6.97016V6.03898C15.1499 5.98664 15.5719 5.95917 16.0002 5.95917C16.4337 5.95917 16.8609 5.98729 17.2802 6.04092V6.97016C17.2802 7.35049 16.9707 7.65991 16.5903 7.65991H15.4255C15.0451 7.65991 14.7356 7.35049 14.7356 6.97016ZM25.0178 14.7278H25.9606C26.0136 15.1445 26.0408 15.5691 26.0408 16C26.0408 16.4309 26.0136 16.8556 25.9605 17.2723H25.0178C24.6374 17.2723 24.328 16.9628 24.328 16.5825V15.4176C24.328 15.0372 24.6374 14.7278 25.0178 14.7278Z" fill="black"/>
<path fill-rule="evenodd" clip-rule="evenodd" d="M16.0483 24.5646L16.045 24.5645L16.0437 24.5645H15.4068C15.1616 24.5645 14.9615 24.7645 14.9615 25.0099V25.7414C15.3029 25.7776 15.6494 25.7965 16.0001 25.7965C16.3434 25.7965 16.6826 25.7784 17.0171 25.7436V25.0099C17.0171 24.7645 16.8171 24.5645 16.5717 24.5645H16.053L16.0517 24.5645L16.0483 24.5646ZM16.053 24.32H16.5717C16.9521 24.32 17.2616 24.6295 17.2616 25.0099V25.9615C16.8482 26.0136 16.4273 26.0409 16.0001 26.0409C15.5655 26.0409 15.1373 26.0127 14.7171 25.9588V25.0099C14.7171 24.6295 15.0265 24.32 15.4069 24.32H16.0437L16.0484 24.3201L16.053 24.32ZM7.4234 16.0484L7.42349 16.042V15.399C7.42349 15.1537 7.2235 14.9537 6.97799 14.9537H6.25926C6.22254 15.2975 6.20359 15.6466 6.20359 16C6.20359 16.3408 6.22117 16.6775 6.2554 17.0093H6.97799C7.22341 17.0093 7.42349 16.8093 7.42349 16.5639L7.42349 16.0547L7.4234 16.0484ZM6.03734 17.2538H6.978C7.3584 17.2538 7.66794 16.9443 7.66794 16.5639L7.66794 16.053L7.66788 16.0484L7.66794 16.0438V15.399C7.66794 15.0187 7.35846 14.7093 6.978 14.7093H6.04195C5.98747 15.1319 5.95916 15.5627 5.95916 16C5.95916 16.4245 5.98578 16.843 6.03734 17.2538ZM14.5138 26.8996C14.4645 26.9126 14.4129 26.9196 14.3598 26.9196C14.2394 26.9196 14.127 26.8841 14.0328 26.8232C9.4876 25.999 5.90692 22.374 5.14909 17.8061C5.12808 17.7447 5.11669 17.6791 5.11669 17.6111C5.11669 17.6077 5.11672 17.6044 5.11678 17.6013C5.04 17.0784 5 16.5437 5 15.9999C5 9.93429 9.93437 5 16.0001 5C22.0657 5 27 9.93432 27 15.9999C27 16.5506 26.959 17.0918 26.8805 17.6209C26.8806 17.6238 26.8806 17.6267 26.8806 17.6296C26.8806 17.6982 26.869 17.7647 26.8474 17.8268C26.0805 22.3948 22.4898 26.016 17.9374 26.8284C17.8449 26.8862 17.7356 26.9196 17.6189 26.9196C17.5687 26.9196 17.5196 26.9134 17.4725 26.9016C16.9907 26.9663 16.4993 27 16.0001 27C15.4961 27 15 26.9656 14.5138 26.8996ZM17.4926 26.6522C17.0046 26.7201 16.5065 26.7556 16.0001 26.7556C15.4884 26.7556 14.9849 26.7193 14.492 26.6498C14.4511 26.6661 14.4065 26.6752 14.3598 26.6752C14.2727 26.6752 14.1929 26.6441 14.1309 26.5924C9.6538 25.8045 6.12237 22.2383 5.38654 17.7435C5.37017 17.7026 5.36115 17.6579 5.36115 17.6111C5.36115 17.6033 5.36147 17.5956 5.36193 17.588C5.28472 17.0696 5.24446 16.5394 5.24446 15.9999C5.24446 10.0693 10.0694 5.24444 16.0001 5.24444C21.9307 5.24444 26.7556 10.0693 26.7556 15.9999C26.7556 16.5461 26.7143 17.0827 26.6354 17.6071C26.6359 17.6145 26.6362 17.622 26.6362 17.6296C26.6362 17.6769 26.6269 17.7222 26.6102 17.7635C25.8656 22.2579 22.3252 25.82 17.8419 26.597C17.7808 26.6459 17.7032 26.6751 17.6189 26.6751C17.5744 26.6751 17.5318 26.667 17.4926 26.6522ZM16.3574 16.3573H17.3533C17.5507 16.3573 17.7107 16.1973 17.7107 16C17.7107 15.8026 17.5507 15.6426 17.3533 15.6426H16.3574V14.6466C16.3574 14.4492 16.1975 14.2893 16 14.2893C15.8026 14.2893 15.6427 14.4492 15.6427 14.6466V15.6426H14.6468C14.4494 15.6426 14.2894 15.8026 14.2894 16C14.2894 16.1973 14.4494 16.3573 14.6468 16.3573H15.6427V17.3532C15.6427 17.5506 15.8026 17.7106 16 17.7106C16.1974 17.7106 16.3574 17.5506 16.3574 17.3532V16.3573ZM15.3982 16.6018V17.3532C15.3982 17.6855 15.6676 17.955 16 17.955C16.3324 17.955 16.6018 17.6856 16.6018 17.3532V16.6018H17.3533C17.6857 16.6018 17.9552 16.3323 17.9552 16C17.9552 15.6675 17.6857 15.3982 17.3533 15.3982H16.6018V14.6466C16.6018 14.3142 16.3324 14.0448 16 14.0448C15.6676 14.0448 15.3982 14.3142 15.3982 14.6466V15.3982H14.6468C14.3144 15.3982 14.045 15.6676 14.045 16C14.045 16.3323 14.3143 16.6018 14.6468 16.6018H15.3982ZM15.4466 23.3609V19.3229C15.4466 18.9906 15.7159 18.7211 16.0483 18.7211C16.3808 18.7211 16.6501 18.9906 16.6501 19.3229V23.3627C17.5233 23.4038 18.2207 24.1267 18.2207 25.0099V25.5425C21.8386 24.7009 24.6941 21.8479 25.5397 18.2314H25.0178C24.131 18.2314 23.4058 17.5284 23.3702 16.6501H19.3307C18.9984 16.6501 18.7289 16.3808 18.7289 16.0484C18.7289 15.716 18.9984 15.4466 19.3307 15.4466H23.3689V15.4176C23.3689 14.5082 24.1083 13.7686 25.0178 13.7686H25.5397C24.6954 10.1583 21.8483 7.3089 18.2393 6.46179V6.97016C18.2393 7.87931 17.5002 8.61864 16.5911 8.61911V12.6572C16.5912 12.9896 16.3216 13.259 15.9893 13.259C15.6569 13.259 15.3875 12.9896 15.3875 12.6573V8.61868C14.4955 8.59848 13.7765 7.86692 13.7765 6.97016V6.4583C10.1661 7.29945 7.31526 10.1434 6.46442 13.7501H6.97796C7.8875 13.7501 8.62703 14.4896 8.62703 15.399V15.4466H12.665C12.9975 15.4466 13.2668 15.716 13.2668 16.0484C13.2668 16.3808 12.9975 16.6502 12.665 16.6502H8.62481C8.57981 17.5197 7.85853 18.213 6.97796 18.213H6.45615C7.2948 21.831 10.1441 24.6882 13.7579 25.5376V25.0099C13.7579 24.1005 14.4974 23.3609 15.4067 23.3609L15.4466 23.3609ZM15.691 23.6053V19.3229C15.691 19.1255 15.851 18.9655 16.0484 18.9655C16.2458 18.9655 16.4057 19.1255 16.4057 19.3229V23.6053H16.5717C17.3462 23.6053 17.9762 24.2354 17.9762 25.0099V25.8454C18.0581 25.829 18.1396 25.8116 18.2207 25.7933C21.974 24.9427 24.936 21.9833 25.7905 18.2314C25.809 18.1503 25.8265 18.0688 25.843 17.987H25.0178C24.2433 17.987 23.6133 17.3569 23.6133 16.5825V16.4057H19.3307C19.1334 16.4057 18.9734 16.2458 18.9734 16.0484C18.9734 15.851 19.1334 15.691 19.3307 15.691H23.6133V15.4176C23.6133 14.6431 24.2433 14.0131 25.0178 14.0131H25.843C25.8265 13.9312 25.809 13.8497 25.7905 13.7686C24.9373 10.0229 21.9838 7.06703 18.2393 6.21087C18.1581 6.19232 18.0767 6.17476 17.9948 6.1582V6.97016C17.9948 7.74459 17.3647 8.37466 16.5903 8.37466C16.59 8.37466 16.5905 8.37466 16.5903 8.37466H16.3467V12.6573C16.3467 12.8546 16.1867 13.0146 15.9893 13.0146C15.7919 13.0146 15.632 12.8546 15.632 12.6573V8.37466H15.4254C14.651 8.37466 14.0209 7.74458 14.0209 6.97016V6.15521C13.9391 6.17164 13.8576 6.18906 13.7765 6.20747C10.0306 7.05762 7.07338 10.008 6.21343 13.7501C6.19479 13.8312 6.17715 13.9127 6.1605 13.9946H6.97797C7.75253 13.9946 8.3826 14.6246 8.3826 15.399V15.691H12.6651C12.8625 15.691 13.0224 15.851 13.0224 16.0484C13.0224 16.2458 12.8625 16.4057 12.6651 16.4057H8.3826V16.5639C8.3826 17.3384 7.75247 17.9685 6.97797 17.9685H6.15342C6.16975 18.0504 6.18707 18.1318 6.20539 18.213C7.05295 21.9664 10.0086 24.9301 13.7579 25.7886C13.839 25.8071 13.9205 25.8247 14.0023 25.8413V25.0099C14.0023 24.2354 14.6324 23.6054 15.4067 23.6054L15.691 23.6053ZM14.9801 6.25683V6.97016C14.9801 7.21546 15.1801 7.41546 15.4255 7.41546H16.5903C16.8357 7.41546 17.0357 7.21544 17.0357 6.97016V6.25843C16.6953 6.22236 16.3498 6.20361 16.0001 6.20361C15.6558 6.20361 15.3155 6.22182 14.9801 6.25683ZM14.7356 6.03898V6.97016C14.7356 7.35049 15.0451 7.65991 15.4255 7.65991H16.5903C16.9707 7.65991 17.2802 7.35049 17.2802 6.97016V6.04092C16.8609 5.98729 16.4337 5.95917 16.0002 5.95917C15.5719 5.95917 15.1499 5.98664 14.7356 6.03898ZM25.7429 14.9722H25.0178C24.7725 14.9722 24.5725 15.1722 24.5725 15.4176V16.5825C24.5725 16.8278 24.7725 17.0278 25.0178 17.0278H25.7428C25.7783 16.6901 25.7964 16.3472 25.7964 16C25.7964 15.6528 25.7783 15.3099 25.7429 14.9722ZM25.9606 14.7278H25.0178C24.6374 14.7278 24.328 15.0372 24.328 15.4176V16.5825C24.328 16.9628 24.6374 17.2723 25.0178 17.2723H25.9605C26.0136 16.8556 26.0408 16.4309 26.0408 16C26.0408 15.5691 26.0136 15.1445 25.9606 14.7278Z" fill="black"/>
</g>
<defs>
<clipPath id="clip0_304_1053">
<rect width="32" height="32" fill="white"/>
</clipPath>
</defs>
</svg>
