<svg width="24" height="24" viewBox="0 0 24 24" fill="none" xmlns="http://www.w3.org/2000/svg">
<path d="M12.5837 2C11.7531 2.00041 10.8444 2.15379 9.85572 2.47908C9.67444 2.53873 9.71106 2.8026 9.89954 2.8328C15.2609 3.69182 15.4027 8.21841 12.7082 8.36223C9.26273 8.54611 10.3272 6.18718 7.50834 4.28717C7.36417 4.18999 7.18807 4.33963 7.25011 4.50172C9.08239 9.28859 5.32639 9.00913 2.35885 4.42779C2.24961 4.25914 1.96896 4.35714 2.00281 4.55504C2.50043 7.46379 3.0967 8.67852 5.17122 10.0828C11.6051 14.4381 5.88271 15.6372 3.08325 12.2846C2.95425 12.1301 2.66497 12.2468 2.71399 12.4418C3.47196 15.4564 5.34169 16.8927 7.5627 17.3096C7.73484 17.3419 7.77812 17.5723 7.62022 17.648C6.09627 18.3777 4.25967 18.667 2.69416 18.5492C2.51035 18.5354 2.41616 18.7631 2.57133 18.8623C4.41103 20.0384 6.92009 20.1086 9.11821 19.3304C9.31505 19.2607 9.48463 19.5208 9.32128 19.6506C8.52398 20.2842 7.63456 20.8638 6.87327 21.2909C6.68355 21.3973 6.81387 22 7.03157 22H12.6577C12.6791 22 12.701 21.996 12.721 21.9886C22.6104 18.3384 23.4299 11.3372 20.5423 6.75381C20.4526 6.61135 20.2343 6.6659 20.2077 6.83202C20.0835 7.60742 19.835 8.31954 19.4206 8.97381C19.336 9.10737 19.1373 9.06276 19.1055 8.908C18.2618 4.7952 16.1368 1.99828 12.5837 2ZM12.7035 9.81794L18.4856 11.9443C18.5976 11.9854 18.7182 11.9091 18.7404 11.7922C18.7518 11.7321 18.7656 11.6715 18.782 11.6108C19.0206 10.7229 19.6995 10.1327 20.2983 10.2926C20.8971 10.4526 21.189 11.302 20.9503 12.1899C20.7116 13.0779 20.0329 13.668 19.4341 13.5081C19.3775 13.493 19.3161 13.5005 19.2708 13.5374L17.0432 15.348C16.9292 15.4406 16.9676 15.6229 17.1093 15.662L19.3667 16.2859C19.5198 16.3283 19.548 16.5326 19.412 16.6146L14.9938 19.2791C14.8127 19.3884 14.6228 19.1523 14.7691 18.9997L16.3995 17.2998C16.497 17.1982 16.4458 17.0294 16.3081 16.9987L15.3771 16.7911C15.3229 16.779 15.2661 16.7924 15.2231 16.8274L10.2374 20.88C10.0688 21.017 9.84544 20.7959 9.98156 20.6269L15.4509 13.8352C15.5314 13.7352 15.4847 13.5858 15.3616 13.5491L11.1679 12.2973C10.9637 12.2364 11.0143 11.9351 11.2273 11.9438L15.0494 12.1011C15.2244 12.1083 15.3068 11.8883 15.1699 11.7794L12.7035 9.81794Z" fill="white"/>
</svg>
