<svg width="326" height="330" viewBox="0 0 326 330" fill="none" xmlns="http://www.w3.org/2000/svg">
<g clip-path="url(#clip0_296_525)">
<g filter="url(#filter0_i_296_525)">
<path d="M325.974 -1.39865e-05L180.258 -7.87934e-06L145.475 42.8L30.8018 42.8L2.43839 77.7L1.3026e-05 298L22.7558 329.5L304.844 329.5L325.974 298L325.974 -1.39865e-05Z" fill="#555658" fill-opacity="0.5"/>
</g>
<path d="M146.057 43.273L145.831 43.55L145.475 43.55L31.1588 43.55L3.18545 77.97L0.752702 297.761L23.1392 328.75L304.444 328.75L325.224 297.772L325.224 0.749986L180.615 0.749992L146.057 43.273Z" stroke="#CCCCCC" stroke-width="1.5"/>
<path d="M101.262 43.7998L325.974 43.8" stroke="#CCCCCC" stroke-width="1.5" stroke-miterlimit="10" stroke-linecap="round"/>
</g>
<defs>
<filter id="filter0_i_296_525" x="0" y="0" width="325.975" height="329.5" filterUnits="userSpaceOnUse" color-interpolation-filters="sRGB">
<feFlood flood-opacity="0" result="BackgroundImageFix"/>
<feBlend mode="normal" in="SourceGraphic" in2="BackgroundImageFix" result="shape"/>
<feColorMatrix in="SourceAlpha" type="matrix" values="0 0 0 0 0 0 0 0 0 0 0 0 0 0 0 0 0 0 127 0" result="hardAlpha"/>
<feOffset/>
<feGaussianBlur stdDeviation="99"/>
<feComposite in2="hardAlpha" operator="arithmetic" k2="-1" k3="1"/>
<feColorMatrix type="matrix" values="0 0 0 0 0 0 0 0 0 0 0 0 0 0 0 0 0 0 0.85 0"/>
<feBlend mode="normal" in2="shape" result="effect1_innerShadow_296_525"/>
</filter>
<clipPath id="clip0_296_525">
<rect width="329.5" height="325.974" fill="white" transform="matrix(4.37114e-08 1 1 -4.37114e-08 0 0)"/>
</clipPath>
</defs>
</svg>
