<svg width="323" height="62" viewBox="0 0 323 62" fill="none" xmlns="http://www.w3.org/2000/svg">
<path opacity="0.7" d="M299.66 61.0383H55.1312C52.6648 61.0383 50.6653 59.0389 50.6653 56.5724V23.8901V5.10388C50.6653 2.63743 52.6648 0.637985 55.1312 0.637985H317.896C320.363 0.637985 322.362 2.63743 322.362 5.10388V43.928C322.362 45.3923 321.644 46.7637 320.441 47.598L302.204 60.2425C301.457 60.7607 300.569 61.0383 299.66 61.0383Z" fill="#0A243D" stroke="#3AA5D3" stroke-width="1.27597"/>
<g filter="url(#filter0_i_296_1526)">
<path d="M8.29102 16.5093V58.2686C8.29102 59.8066 9.53776 61.0533 11.0757 61.0533H51.6816C52.4201 61.0533 53.1284 60.7599 53.6506 60.2377L67.7811 46.1072C68.3034 45.585 68.5968 44.8767 68.5968 44.1381V3.53223C68.5968 1.9943 67.35 0.747559 65.8121 0.747559H24.0527H11.0757C9.53776 0.747559 8.29102 1.9943 8.29102 3.53224V16.5093Z" fill="#0A243D"/>
</g>
<path d="M8.29076 61.7385H52.8348C53.0404 61.7385 53.1774 61.67 53.3145 61.5329L69.0762 45.7712C69.2133 45.6342 69.2818 45.4971 69.2818 45.2915V0.747517C69.2818 0.336341 69.0077 0.0622245 68.5965 0.0622245H24.0525C18.7807 0.0622245 13.1779 -0.0777666 7.81105 0.0622385C7.67399 0.199297 7.60547 0.336364 7.60547 0.541952L7.60547 61.0533C7.60547 61.4644 7.94811 61.7385 8.29076 61.7385ZM52.5607 60.368H8.97605V1.43281H24.3266H67.9112V45.0174L52.5607 60.368Z" fill="#3AA5D3"/>
<path d="M3.18529 38.1645H7.63969C8.05087 38.1645 8.32499 37.8904 8.32499 37.4792C8.32499 37.0681 8.05087 36.7939 7.63969 36.7939H3.18529C2.77412 36.7939 2.5 37.0681 2.5 37.4792C2.5 37.8904 2.84265 38.1645 3.18529 38.1645Z" fill="#3AA5D3"/>
<path d="M0 0V62H3V0L0 0Z" fill="#3AA5D3"/>
<defs>
<filter id="filter0_i_296_1526" x="8.29102" y="0.747559" width="60.3066" height="60.3057" filterUnits="userSpaceOnUse" color-interpolation-filters="sRGB">
<feFlood flood-opacity="0" result="BackgroundImageFix"/>
<feBlend mode="normal" in="SourceGraphic" in2="BackgroundImageFix" result="shape"/>
<feColorMatrix in="SourceAlpha" type="matrix" values="0 0 0 0 0 0 0 0 0 0 0 0 0 0 0 0 0 0 127 0" result="hardAlpha"/>
<feOffset/>
<feGaussianBlur stdDeviation="8.12779"/>
<feComposite in2="hardAlpha" operator="arithmetic" k2="-1" k3="1"/>
<feColorMatrix type="matrix" values="0 0 0 0 0.261137 0 0 0 0 0.742891 0 0 0 0 0.95 0 0 0 0.7 0"/>
<feBlend mode="normal" in2="shape" result="effect1_innerShadow_296_1526"/>
</filter>
</defs>
</svg>
