<svg width="93" height="81" viewBox="0 0 93 81" fill="none" xmlns="http://www.w3.org/2000/svg">
<g opacity="0.7">
<g filter="url(#filter0_i_315_525)">
<path d="M66.615 0H25.9253C24.0992 0 22.4122 0.975666 21.5014 2.55852L1.31218 37.6477C0.405514 39.2235 0.405515 41.1626 1.31218 42.7384L21.5014 77.8276C22.4122 79.4105 24.0992 80.3861 25.9253 80.3861H66.615C68.4302 80.3861 70.1089 79.422 71.0236 77.854L91.4932 42.7649C92.4203 41.1757 92.4203 39.2105 91.4932 37.6213L71.0236 2.53209C70.1089 0.964141 68.4302 0 66.615 0Z" fill="#3D0E0A"/>
</g>
<path d="M25.9253 0.637985H66.615C68.2033 0.637985 69.6721 1.48161 70.4725 2.85357L90.9421 37.9428C91.7533 39.3333 91.7533 41.0528 90.9421 42.4434L70.4725 77.5326C69.6721 78.9045 68.2033 79.7482 66.615 79.7482H25.9253C24.3274 79.7482 22.8513 78.8944 22.0544 77.5095L1.86517 42.4203C1.07183 41.0414 1.07183 39.3447 1.86517 37.9659L22.0544 2.87669L21.5014 2.55852L22.0544 2.87669C22.8513 1.49169 24.3274 0.637985 25.9253 0.637985Z" stroke="#D3473A" stroke-width="1.27597"/>
</g>
<defs>
<filter id="filter0_i_315_525" x="0.632812" y="0" width="91.5547" height="80.3862" filterUnits="userSpaceOnUse" color-interpolation-filters="sRGB">
<feFlood flood-opacity="0" result="BackgroundImageFix"/>
<feBlend mode="normal" in="SourceGraphic" in2="BackgroundImageFix" result="shape"/>
<feColorMatrix in="SourceAlpha" type="matrix" values="0 0 0 0 0 0 0 0 0 0 0 0 0 0 0 0 0 0 127 0" result="hardAlpha"/>
<feOffset/>
<feGaussianBlur stdDeviation="14.897"/>
<feComposite in2="hardAlpha" operator="arithmetic" k2="-1" k3="1"/>
<feColorMatrix type="matrix" values="0 0 0 0 0.95 0 0 0 0 0.318543 0 0 0 0 0.261137 0 0 0 0.4 0"/>
<feBlend mode="normal" in2="shape" result="effect1_innerShadow_315_525"/>
</filter>
</defs>
</svg>
