<svg width="88" height="88" viewBox="0 0 88 88" fill="none" xmlns="http://www.w3.org/2000/svg">
<g clip-path="url(#clip0_311_512)">
<g opacity="0.8">
<g filter="url(#filter0_i_311_512)">
<path d="M29.2501 75.7432C30.1808 76.6739 31.4432 77.1968 32.7594 77.1968L82.5996 77.1968C85.3405 77.1968 87.5625 74.9748 87.5625 72.2339L87.5625 22.3937C87.5625 21.0774 87.0396 19.8151 86.1089 18.8844L68.8968 1.67231C67.9661 0.74158 66.7038 0.218707 65.3875 0.218707L15.5473 0.218714C12.8064 0.218714 10.5844 2.44069 10.5844 5.18164L10.5844 55.0218C10.5844 56.3381 11.1073 57.6004 12.038 58.5311L29.2501 75.7432Z" fill="#555658"/>
</g>
<path d="M29.6888 75.3045C30.5031 76.1189 31.6077 76.5764 32.7594 76.5764L82.5996 76.5764C84.9979 76.5764 86.9421 74.6322 86.9421 72.2339L86.9421 22.3937C86.9421 21.242 86.4846 20.1374 85.6702 19.323L68.4582 2.11098C67.6438 1.29659 66.5392 0.839068 65.3875 0.839068L15.5473 0.839075C13.149 0.839075 11.2048 2.78331 11.2048 5.18164L11.2048 55.0218C11.2048 56.1735 11.6623 57.2781 12.4767 58.0925L29.6888 75.3045Z" stroke="#CCCCCC" stroke-width="1.24073"/>
<path d="M58.3477 82.8826L58.3477 77.1967C58.3477 76.6718 57.9978 76.3219 57.4729 76.3219C56.9481 76.3219 56.5982 76.6718 56.5982 77.1967L56.5982 82.8826C56.5982 83.4074 56.9481 83.7573 57.4729 83.7573C57.9978 83.7573 58.3477 83.3199 58.3477 82.8826Z" fill="#CCCCCC"/>
<path d="M11.3633 30.2224C11.3633 29.6976 11.0134 29.3477 10.4885 29.3477L4.8901 29.3477C4.36525 29.3477 4.01535 29.6976 4.01535 30.2224C4.01535 30.7473 4.36525 31.0972 4.8901 31.0972L10.4885 31.0972C11.0134 31.0972 11.3633 30.7473 11.3633 30.2224Z" fill="#CCCCCC"/>
<path d="M20.3789 66C20.3789 65.7375 20.2914 65.5626 20.1165 65.3876C19.7666 65.0377 19.2417 65.0377 18.8918 65.3876L14.4306 69.8489C14.0807 70.1988 14.0807 70.7236 14.4306 71.0735C14.7805 71.4234 15.3053 71.4234 15.6552 71.0735L20.1165 66.6123C20.2914 66.4373 20.3789 66.1749 20.3789 66Z" fill="#CCCCCC"/>
<path d="M22.4795 87.7813L76.9766 87.7812L76.9766 82.8826L27.3782 82.8826L4.89707 60.4015L4.89706 10.8032L-0.00152071 10.8032L-0.00151357 65.3002L22.4795 87.7813Z" fill="#CCCCCC"/>
</g>
</g>
<defs>
<filter id="filter0_i_311_512" x="10.5859" y="0.21875" width="76.9766" height="76.978" filterUnits="userSpaceOnUse" color-interpolation-filters="sRGB">
<feFlood flood-opacity="0" result="BackgroundImageFix"/>
<feBlend mode="normal" in="SourceGraphic" in2="BackgroundImageFix" result="shape"/>
<feColorMatrix in="SourceAlpha" type="matrix" values="0 0 0 0 0 0 0 0 0 0 0 0 0 0 0 0 0 0 127 0" result="hardAlpha"/>
<feOffset/>
<feGaussianBlur stdDeviation="22.5503"/>
<feComposite in2="hardAlpha" operator="arithmetic" k2="-1" k3="1"/>
<feColorMatrix type="matrix" values="0 0 0 0 0 0 0 0 0 0 0 0 0 0 0 0 0 0 0.85 0"/>
<feBlend mode="normal" in2="shape" result="effect1_innerShadow_311_512"/>
</filter>
<clipPath id="clip0_311_512">
<rect width="87.5626" height="87.564" fill="white" transform="matrix(-1.31134e-07 -1 -1 1.31134e-07 87.5625 87.7812)"/>
</clipPath>
</defs>
</svg>
