<svg width="78" height="88" viewBox="0 0 78 88" fill="none" xmlns="http://www.w3.org/2000/svg">
<g clip-path="url(#clip0_312_8907)">
<g opacity="0.8">
<g filter="url(#filter0_i_312_8907)">
<path d="M57.4198 77.4155L1.43575 77.4155C0.952629 77.4155 0.560989 77.0239 0.560989 76.5408L0.560987 20.5567L0.560986 1.30577C0.560986 0.825183 0.948697 0.434597 1.42928 0.431049L59.3969 0.00306018C59.6535 0.00116808 59.898 0.112046 60.0657 0.306329L77.3266 20.3105C77.4637 20.4693 77.5391 20.6721 77.5391 20.8819L77.5391 57.2963L77.5391 76.5408C77.5391 77.0239 77.1474 77.4155 76.6643 77.4155L57.4198 77.4155Z" fill="#0A243D"/>
</g>
<path d="M1.43575 76.5408L57.4198 76.5408L76.6643 76.5408L76.6643 57.2963L76.6643 20.882L59.4034 0.877786L1.43573 1.30577L1.43574 20.5567L1.43575 76.5408Z" stroke="#3AA5D3" stroke-width="1.7495"/>
<path d="M29.7739 83.1013L29.7739 77.4154C29.7739 76.8906 30.1238 76.5407 30.6487 76.5407C31.1735 76.5407 31.5234 76.8906 31.5234 77.4154L31.5234 83.1013C31.5234 83.6262 31.1735 83.9761 30.6487 83.9761C30.1238 83.9761 29.7739 83.5387 29.7739 83.1013Z" fill="#3AA5D3"/>
<path d="M65.6406 88L11.1437 88L11.1437 83.1014L65.6406 83.1014L65.6406 88Z" fill="#3AA5D3"/>
</g>
</g>
<defs>
<filter id="filter0_i_312_8907" x="0.5625" y="0.00292969" width="76.9766" height="77.4126" filterUnits="userSpaceOnUse" color-interpolation-filters="sRGB">
<feFlood flood-opacity="0" result="BackgroundImageFix"/>
<feBlend mode="normal" in="SourceGraphic" in2="BackgroundImageFix" result="shape"/>
<feColorMatrix in="SourceAlpha" type="matrix" values="0 0 0 0 0 0 0 0 0 0 0 0 0 0 0 0 0 0 127 0" result="hardAlpha"/>
<feOffset/>
<feGaussianBlur stdDeviation="10.3748"/>
<feComposite in2="hardAlpha" operator="arithmetic" k2="-1" k3="1"/>
<feColorMatrix type="matrix" values="0 0 0 0 0.261137 0 0 0 0 0.742891 0 0 0 0 0.95 0 0 0 0.7 0"/>
<feBlend mode="normal" in2="shape" result="effect1_innerShadow_312_8907"/>
</filter>
<clipPath id="clip0_312_8907">
<rect width="87.9999" height="76.9781" fill="white" transform="matrix(-4.37114e-08 -1 -1 4.37114e-08 77.5391 88)"/>
</clipPath>
</defs>
</svg>
