<svg width="89" height="88" viewBox="0 0 89 88" fill="none" xmlns="http://www.w3.org/2000/svg">
<g clip-path="url(#clip0_312_8934)">
<g opacity="0.8">
<g filter="url(#filter0_i_312_8934)">
<path d="M57.6072 76.9406C57.4432 77.1046 57.2207 77.1968 56.9887 77.1968L1.36694 77.1968C0.88383 77.1968 0.492187 76.8051 0.492187 76.322L0.492185 20.7003C0.492185 20.4683 0.584346 20.2458 0.748394 20.0818L20.3552 0.474906C20.5193 0.310859 20.7418 0.218703 20.9738 0.218703L76.5955 0.218701C77.0786 0.218701 77.4703 0.610341 77.4703 1.09345L77.4703 56.7152C77.4703 56.9472 77.3781 57.1697 77.214 57.3337L57.6072 76.9406Z" fill="#0A243D"/>
</g>
<path d="M56.9887 76.322L1.36694 76.322L1.36694 76.322L1.36694 20.7003L20.9738 1.09345L76.5955 1.09345L76.5955 56.7152L56.9887 76.322Z" stroke="#3AA5D3" stroke-width="1.7495"/>
<path d="M29.707 82.8826L29.707 77.1967C29.707 76.6718 30.0569 76.3219 30.5818 76.3219C31.1066 76.3219 31.4565 76.6718 31.4565 77.1967L31.4565 82.8826C31.4565 83.4074 31.1066 83.7573 30.5818 83.7573C30.0569 83.7573 29.707 83.3199 29.707 82.8826Z" fill="#3AA5D3"/>
<path d="M76.6914 30.2224C76.6914 29.6976 77.0413 29.3477 77.5662 29.3477L83.1646 29.3477C83.6894 29.3477 84.0393 29.6976 84.0393 30.2224C84.0393 30.7473 83.6894 31.0972 83.1646 31.0972L77.5662 31.0972C77.0413 31.0972 76.6914 30.7473 76.6914 30.2224Z" fill="#3AA5D3"/>
<path d="M67.6758 66C67.6758 65.7375 67.7632 65.5626 67.9382 65.3876C68.2881 65.0377 68.813 65.0377 69.1629 65.3876L73.6241 69.8489C73.974 70.1988 73.974 70.7236 73.6241 71.0735C73.2742 71.4234 72.7494 71.4234 72.3995 71.0735L67.9382 66.6123C67.7632 66.4373 67.6758 66.1749 67.6758 66Z" fill="#3AA5D3"/>
<path d="M65.5751 87.7812L11.0781 87.7812L11.0781 82.8826L60.6765 82.8826L83.1576 60.4015L83.1576 10.8032L88.0562 10.8032L88.0562 65.3001L65.5751 87.7812Z" fill="#3AA5D3"/>
</g>
</g>
<defs>
<filter id="filter0_i_312_8934" x="0.492188" y="0.21875" width="76.9766" height="76.978" filterUnits="userSpaceOnUse" color-interpolation-filters="sRGB">
<feFlood flood-opacity="0" result="BackgroundImageFix"/>
<feBlend mode="normal" in="SourceGraphic" in2="BackgroundImageFix" result="shape"/>
<feColorMatrix in="SourceAlpha" type="matrix" values="0 0 0 0 0 0 0 0 0 0 0 0 0 0 0 0 0 0 127 0" result="hardAlpha"/>
<feOffset/>
<feGaussianBlur stdDeviation="10.3748"/>
<feComposite in2="hardAlpha" operator="arithmetic" k2="-1" k3="1"/>
<feColorMatrix type="matrix" values="0 0 0 0 0.261137 0 0 0 0 0.742891 0 0 0 0 0.95 0 0 0 0.7 0"/>
<feBlend mode="normal" in2="shape" result="effect1_innerShadow_312_8934"/>
</filter>
<clipPath id="clip0_312_8934">
<rect width="87.5626" height="87.564" fill="white" transform="translate(0.492188 87.7812) rotate(-90)"/>
</clipPath>
</defs>
</svg>
