<svg width="88" height="88" viewBox="0 0 88 88" fill="none" xmlns="http://www.w3.org/2000/svg">
<g clip-path="url(#clip0_312_8950)">
<g opacity="0.8">
<g filter="url(#filter0_i_312_8950)">
<path d="M30.4475 76.9411C30.6115 77.1051 30.834 77.1973 31.066 77.1973L86.6877 77.1973C87.1709 77.1973 87.5625 76.8056 87.5625 76.3225L87.5625 20.7008C87.5625 20.4688 87.4703 20.2463 87.3063 20.0823L67.6994 0.475398C67.5354 0.311351 67.3129 0.219195 67.0809 0.219195L11.4592 0.219202C10.9761 0.219203 10.5844 0.610842 10.5844 1.09395L10.5844 56.7157C10.5844 56.9477 10.6766 57.1702 10.8406 57.3342L30.4475 76.9411Z" fill="#0A243D"/>
</g>
<path d="M31.066 76.3225L86.6877 76.3225L86.6877 76.3225L86.6877 20.7008L67.0809 1.09394L11.4592 1.09395L11.4592 56.7157L31.066 76.3225Z" stroke="#3AA5D3" stroke-width="1.7495"/>
<path d="M58.3477 82.8831L58.3477 77.1972C58.3477 76.6723 57.9978 76.3224 57.4729 76.3224C56.9481 76.3224 56.5982 76.6723 56.5982 77.1972L56.5982 82.8831C56.5982 83.4079 56.9481 83.7578 57.4729 83.7578C57.9978 83.7578 58.3477 83.3204 58.3477 82.8831Z" fill="#3AA5D3"/>
<path d="M11.3633 30.2229C11.3633 29.6981 11.0134 29.3482 10.4885 29.3482L4.8901 29.3482C4.36525 29.3482 4.01535 29.6981 4.01535 30.2229C4.01535 30.7478 4.36525 31.0977 4.8901 31.0977L10.4885 31.0977C11.0134 31.0977 11.3633 30.7478 11.3633 30.2229Z" fill="#3AA5D3"/>
<path d="M20.3789 66.0005C20.3789 65.738 20.2914 65.5631 20.1165 65.3881C19.7666 65.0382 19.2417 65.0382 18.8918 65.3881L14.4306 69.8494C14.0807 70.1993 14.0807 70.7241 14.4306 71.074C14.7805 71.4239 15.3053 71.4239 15.6552 71.074L20.1165 66.6128C20.2914 66.4378 20.3789 66.1754 20.3789 66.0005Z" fill="#3AA5D3"/>
<path d="M22.4795 87.7817L76.9766 87.7817L76.9766 82.8831L27.3782 82.8831L4.89707 60.402L4.89706 10.8037L-0.00152071 10.8037L-0.00151357 65.3006L22.4795 87.7817Z" fill="#3AA5D3"/>
</g>
</g>
<defs>
<filter id="filter0_i_312_8950" x="10.5859" y="0.219238" width="76.9766" height="76.978" filterUnits="userSpaceOnUse" color-interpolation-filters="sRGB">
<feFlood flood-opacity="0" result="BackgroundImageFix"/>
<feBlend mode="normal" in="SourceGraphic" in2="BackgroundImageFix" result="shape"/>
<feColorMatrix in="SourceAlpha" type="matrix" values="0 0 0 0 0 0 0 0 0 0 0 0 0 0 0 0 0 0 127 0" result="hardAlpha"/>
<feOffset/>
<feGaussianBlur stdDeviation="10.3748"/>
<feComposite in2="hardAlpha" operator="arithmetic" k2="-1" k3="1"/>
<feColorMatrix type="matrix" values="0 0 0 0 0.261137 0 0 0 0 0.742891 0 0 0 0 0.95 0 0 0 0.7 0"/>
<feBlend mode="normal" in2="shape" result="effect1_innerShadow_312_8950"/>
</filter>
<clipPath id="clip0_312_8950">
<rect width="87.5626" height="87.564" fill="white" transform="matrix(1 0 0 -1 0 87.7822)"/>
</clipPath>
</defs>
</svg>
