<svg width="78" height="88" viewBox="0 0 78 88" fill="none" xmlns="http://www.w3.org/2000/svg">
<g clip-path="url(#clip0_312_8925)">
<g opacity="0.8">
<g filter="url(#filter0_i_312_8925)">
<path d="M57.3729 77.415L1.38887 77.415C0.905754 77.415 0.514114 77.0234 0.514114 76.5403L0.514112 20.9186C0.514112 20.6866 0.606275 20.4641 0.770322 20.3L20.3799 0.690394C20.5423 0.527995 20.7621 0.435977 20.9918 0.434214L76.6107 0.00682072C77.0964 0.00308992 77.4922 0.395805 77.4922 0.881546L77.4922 20.5562L77.4922 57.2958L77.4922 76.5403C77.4922 77.0234 77.1005 77.415 76.6174 77.415L57.3729 77.415Z" fill="#0A243D"/>
</g>
<path d="M1.38887 76.5403L57.3729 76.5403L76.6174 76.5403L76.6174 57.2958L76.6174 20.5562L76.6174 0.881546L20.9985 1.30894L1.38886 20.9186L1.38887 76.5403Z" stroke="#3AA5D3" stroke-width="1.7495"/>
<path d="M48.0005 83.1008L48.0005 77.415C48.0005 76.8901 48.3504 76.5402 48.8752 76.5402C49.4001 76.5402 49.75 76.8901 49.75 77.415L49.75 83.1008C49.75 83.6257 49.4001 83.9756 48.8752 83.9756C48.3504 83.9756 48.0005 83.5382 48.0005 83.1008Z" fill="#3AA5D3"/>
<path d="M65.5938 87.9995L11.0968 87.9995L11.0968 83.1009L65.5937 83.1009L65.5938 87.9995Z" fill="#3AA5D3"/>
</g>
</g>
<defs>
<filter id="filter0_i_312_8925" x="0.515625" y="0.00683594" width="76.9766" height="77.4082" filterUnits="userSpaceOnUse" color-interpolation-filters="sRGB">
<feFlood flood-opacity="0" result="BackgroundImageFix"/>
<feBlend mode="normal" in="SourceGraphic" in2="BackgroundImageFix" result="shape"/>
<feColorMatrix in="SourceAlpha" type="matrix" values="0 0 0 0 0 0 0 0 0 0 0 0 0 0 0 0 0 0 127 0" result="hardAlpha"/>
<feOffset/>
<feGaussianBlur stdDeviation="10.3748"/>
<feComposite in2="hardAlpha" operator="arithmetic" k2="-1" k3="1"/>
<feColorMatrix type="matrix" values="0 0 0 0 0.261137 0 0 0 0 0.742891 0 0 0 0 0.95 0 0 0 0.7 0"/>
<feBlend mode="normal" in2="shape" result="effect1_innerShadow_312_8925"/>
</filter>
<clipPath id="clip0_312_8925">
<rect width="87.9995" height="76.9781" fill="white" transform="matrix(-4.37114e-08 -1 -1 4.37114e-08 77.4922 87.9995)"/>
</clipPath>
</defs>
</svg>
