<svg width="89" height="88" viewBox="0 0 89 88" fill="none" xmlns="http://www.w3.org/2000/svg">
<g clip-path="url(#clip0_311_556)">
<g opacity="0.8">
<g filter="url(#filter0_i_311_556)">
<path d="M58.8046 75.7432C57.8739 76.6739 56.6115 77.1968 55.2953 77.1968L5.45511 77.1968C2.71417 77.1968 0.492187 74.9748 0.492187 72.2339L0.492185 22.3937C0.492185 21.0774 1.01506 19.8151 1.94579 18.8844L19.1578 1.67231C20.0886 0.741576 21.3509 0.218703 22.6672 0.218703L72.5073 0.218701C75.2483 0.218701 77.4703 2.44068 77.4703 5.18162L77.4703 55.0218C77.4703 56.338 76.9474 57.6004 76.0167 58.5311L58.8046 75.7432Z" fill="#555658"/>
</g>
<path d="M58.3659 75.3045C57.5515 76.1189 56.447 76.5764 55.2953 76.5764L5.45511 76.5764C3.05678 76.5764 1.11255 74.6322 1.11255 72.2339L1.11255 22.3937C1.11255 21.242 1.57007 20.1374 2.38446 19.323L19.5965 2.11098C20.4109 1.29658 21.5154 0.839065 22.6672 0.839065L72.5073 0.839062C74.9057 0.839062 76.8499 2.7833 76.8499 5.18162L76.8499 55.0218C76.8499 56.1735 76.3924 57.2781 75.578 58.0924L58.3659 75.3045Z" stroke="#CCCCCC" stroke-width="1.24073"/>
<path d="M29.707 82.8826L29.707 77.1967C29.707 76.6718 30.0569 76.3219 30.5818 76.3219C31.1066 76.3219 31.4565 76.6718 31.4565 77.1967L31.4565 82.8826C31.4565 83.4074 31.1066 83.7573 30.5818 83.7573C30.0569 83.7573 29.707 83.3199 29.707 82.8826Z" fill="#CCCCCC"/>
<path d="M76.6914 30.2224C76.6914 29.6976 77.0413 29.3477 77.5662 29.3477L83.1646 29.3477C83.6894 29.3477 84.0393 29.6976 84.0393 30.2224C84.0393 30.7473 83.6894 31.0972 83.1646 31.0972L77.5662 31.0972C77.0413 31.0972 76.6914 30.7473 76.6914 30.2224Z" fill="#CCCCCC"/>
<path d="M67.6758 66C67.6758 65.7375 67.7632 65.5626 67.9382 65.3876C68.2881 65.0377 68.813 65.0377 69.1629 65.3876L73.6241 69.8489C73.974 70.1988 73.974 70.7236 73.6241 71.0735C73.2742 71.4234 72.7494 71.4234 72.3995 71.0735L67.9382 66.6123C67.7632 66.4373 67.6758 66.1749 67.6758 66Z" fill="#CCCCCC"/>
<path d="M65.5751 87.7812L11.0781 87.7812L11.0781 82.8826L60.6765 82.8826L83.1576 60.4015L83.1576 10.8032L88.0562 10.8032L88.0562 65.3001L65.5751 87.7812Z" fill="#CCCCCC"/>
</g>
</g>
<defs>
<filter id="filter0_i_311_556" x="0.492188" y="0.21875" width="76.9766" height="76.978" filterUnits="userSpaceOnUse" color-interpolation-filters="sRGB">
<feFlood flood-opacity="0" result="BackgroundImageFix"/>
<feBlend mode="normal" in="SourceGraphic" in2="BackgroundImageFix" result="shape"/>
<feColorMatrix in="SourceAlpha" type="matrix" values="0 0 0 0 0 0 0 0 0 0 0 0 0 0 0 0 0 0 127 0" result="hardAlpha"/>
<feOffset/>
<feGaussianBlur stdDeviation="22.5503"/>
<feComposite in2="hardAlpha" operator="arithmetic" k2="-1" k3="1"/>
<feColorMatrix type="matrix" values="0 0 0 0 0 0 0 0 0 0 0 0 0 0 0 0 0 0 0.85 0"/>
<feBlend mode="normal" in2="shape" result="effect1_innerShadow_311_556"/>
</filter>
<clipPath id="clip0_311_556">
<rect width="87.5626" height="87.564" fill="white" transform="translate(0.492188 87.7812) rotate(-90)"/>
</clipPath>
</defs>
</svg>
