<svg width="78" height="88" viewBox="0 0 78 88" fill="none" xmlns="http://www.w3.org/2000/svg">
<g clip-path="url(#clip0_311_527)">
<g opacity="0.8">
<g filter="url(#filter0_i_311_527)">
<path d="M57.4198 77.4155L5.52391 77.4155C2.78297 77.4155 0.560989 75.1936 0.560989 72.4526L0.560987 20.5567L0.560986 5.36387C0.560986 2.63723 2.76069 0.421215 5.48726 0.401088L57.5066 0.0170221C58.9624 0.00627217 60.3496 0.635323 61.3007 1.7376L76.3336 19.1597C77.1112 20.0609 77.5391 21.2116 77.5391 22.4019L77.5391 57.2963L77.5391 72.4526C77.5391 75.1936 75.3171 77.4155 72.5761 77.4155L57.4198 77.4155Z" fill="#555658"/>
</g>
<path d="M5.52391 76.7952L57.4198 76.7952L72.5761 76.7952C74.9745 76.7952 76.9187 74.8509 76.9187 72.4526L76.9187 57.2963L76.9187 22.4019C76.9187 21.3604 76.5444 20.3535 75.8639 19.565L60.831 2.14288C59.9988 1.17838 58.785 0.627961 57.5111 0.637368L5.49184 1.02143C3.1061 1.03905 1.18135 2.97805 1.18135 5.36387L1.18135 20.5567L1.18135 72.4526C1.18135 74.8509 3.12559 76.7952 5.52391 76.7952Z" stroke="#CCCCCC" stroke-width="1.24073"/>
<path d="M29.7739 83.1013L29.7739 77.4154C29.7739 76.8906 30.1238 76.5407 30.6487 76.5407C31.1735 76.5407 31.5234 76.8906 31.5234 77.4154L31.5234 83.1013C31.5234 83.6262 31.1735 83.9761 30.6487 83.9761C30.1238 83.9761 29.7739 83.5387 29.7739 83.1013Z" fill="#CCCCCC"/>
<path d="M65.6406 88L11.1437 88L11.1437 83.1014L65.6406 83.1014L65.6406 88Z" fill="#CCCCCC"/>
</g>
</g>
<defs>
<filter id="filter0_i_311_527" x="0.5625" y="0.0170898" width="76.9766" height="77.3984" filterUnits="userSpaceOnUse" color-interpolation-filters="sRGB">
<feFlood flood-opacity="0" result="BackgroundImageFix"/>
<feBlend mode="normal" in="SourceGraphic" in2="BackgroundImageFix" result="shape"/>
<feColorMatrix in="SourceAlpha" type="matrix" values="0 0 0 0 0 0 0 0 0 0 0 0 0 0 0 0 0 0 127 0" result="hardAlpha"/>
<feOffset/>
<feGaussianBlur stdDeviation="22.5503"/>
<feComposite in2="hardAlpha" operator="arithmetic" k2="-1" k3="1"/>
<feColorMatrix type="matrix" values="0 0 0 0 0 0 0 0 0 0 0 0 0 0 0 0 0 0 0.85 0"/>
<feBlend mode="normal" in2="shape" result="effect1_innerShadow_311_527"/>
</filter>
<clipPath id="clip0_311_527">
<rect width="87.9999" height="76.9781" fill="white" transform="matrix(-4.37114e-08 -1 -1 4.37114e-08 77.5391 88)"/>
</clipPath>
</defs>
</svg>
