<svg width="5" height="18" viewBox="0 0 5 18" fill="none" xmlns="http://www.w3.org/2000/svg">
<path d="M4.51278 18L0.487221 18C0.218136 18 -9.74296e-09 17.7771 -2.17616e-08 17.5022L-5.5395e-08 16.7327C-6.74136e-08 16.4578 0.218136 16.2349 0.487221 16.2349L4.51278 16.2349C4.78187 16.2349 5 16.4578 5 16.7327L5 17.5022C5 17.7771 4.78187 18 4.51278 18Z" fill="white"/>
<path d="M0.671649 7.83126C0.506787 7.83126 0.373142 7.69382 0.373142 7.52428L0.373142 7.22136C0.372072 6.61759 0.505805 6.02217 0.763387 5.48084C0.791011 5.42279 0.862483 5.40546 0.92533 5.40556L4.07467 5.40556C4.13752 5.40546 4.20899 5.42278 4.23663 5.48083C4.49417 6.02193 4.6279 6.61712 4.62686 7.22067L4.62686 7.52428C4.62686 7.69382 4.49321 7.83126 4.32835 7.83126L0.671649 7.83126Z" fill="white"/>
<path d="M3.76072 4.99169C3.92865 4.99169 4.06387 4.84873 4.05567 4.67624C3.92605 1.95153 3.06044 0.572013 2.67939 0.0909171C2.58337 -0.0303135 2.41641 -0.0303069 2.3204 0.0909331C1.9394 0.57204 1.07394 1.95156 0.94433 4.67624C0.936126 4.84873 1.07135 4.99169 1.23928 4.99169L3.76072 4.99169Z" fill="white"/>
<path d="M4.51345 15.7672L0.486546 15.7672C0.426103 15.7673 0.373135 15.7196 0.373135 15.6575L0.373135 8.59872C0.373135 8.42918 0.506781 8.29174 0.671642 8.29174L4.32836 8.29173C4.49322 8.29173 4.62687 8.42918 4.62687 8.59872L4.62687 15.6575C4.62687 15.7196 4.5739 15.7673 4.51345 15.7672Z" fill="white"/>
</svg>
