<svg width="75" height="45" viewBox="0 0 75 45" fill="none" xmlns="http://www.w3.org/2000/svg">
<g filter="url(#filter0_i_312_8952)">
<path d="M21.2606 0H70.1323C72.8206 0 75 2.17935 75 4.86772V22.5V40.1323C75 42.8206 72.8206 45 70.1323 45H21.2606C19.8271 45 18.4664 44.3681 17.5415 43.2728L2.65203 25.6406C1.12051 23.8269 1.12051 21.1731 2.65203 19.3594L17.5415 1.72716C18.4664 0.631894 19.8271 0 21.2606 0Z" fill="#555658"/>
</g>
<path d="M70.1323 0.608465H21.2606C20.0062 0.608465 18.8157 1.16137 18.0064 2.11973L3.11691 19.752C1.77684 21.3389 1.77684 23.6611 3.11691 25.248L18.0064 42.8803C18.8157 43.8386 20.0062 44.3915 21.2606 44.3915H70.1323C72.4846 44.3915 74.3915 42.4846 74.3915 40.1323V22.5V4.86772C74.3915 2.5154 72.4846 0.608465 70.1323 0.608465Z" stroke="#3AA5D3" stroke-width="1.21693"/>
<defs>
<filter id="filter0_i_312_8952" x="1.50391" y="0" width="73.4961" height="45" filterUnits="userSpaceOnUse" color-interpolation-filters="sRGB">
<feFlood flood-opacity="0" result="BackgroundImageFix"/>
<feBlend mode="normal" in="SourceGraphic" in2="BackgroundImageFix" result="shape"/>
<feColorMatrix in="SourceAlpha" type="matrix" values="0 0 0 0 0 0 0 0 0 0 0 0 0 0 0 0 0 0 127 0" result="hardAlpha"/>
<feOffset/>
<feGaussianBlur stdDeviation="22.1177"/>
<feComposite in2="hardAlpha" operator="arithmetic" k2="-1" k3="1"/>
<feColorMatrix type="matrix" values="0 0 0 0 0 0 0 0 0 0 0 0 0 0 0 0 0 0 0.85 0"/>
<feBlend mode="normal" in2="shape" result="effect1_innerShadow_312_8952"/>
</filter>
</defs>
</svg>
