<svg width="65" height="56" viewBox="0 0 65 56" fill="none" xmlns="http://www.w3.org/2000/svg">
<g opacity="0.8">
<g filter="url(#filter0_i_312_9034)">
<path d="M45.9575 0L18.7256 0C17.1077 0 15.613 0.864437 14.8061 2.26684L1.29757 25.7448C0.49426 27.141 0.49426 28.859 1.29756 30.2552L14.8061 53.7332C15.613 55.1356 17.1077 56 18.7256 56H45.9575C47.5658 56 49.0531 55.1458 49.8635 53.7566L63.5596 30.2786C64.381 28.8706 64.381 27.1294 63.5596 25.7214L49.8635 2.24343C49.0531 0.854227 47.5658 0 45.9575 0Z" fill="#555658"/>
</g>
<path d="M18.7256 0.565253H45.9575C47.3648 0.565253 48.6662 1.3127 49.3753 2.52825L63.0714 26.0062C63.7901 27.2383 63.7901 28.7617 63.0714 29.9938L49.3753 53.4717C48.6662 54.6873 47.3648 55.4347 45.9575 55.4347H18.7256C17.3099 55.4347 16.0021 54.6784 15.296 53.4513L1.78751 29.9733C1.08462 28.7517 1.08462 27.2483 1.78751 26.0267L15.296 2.54874C16.0021 1.32164 17.3099 0.565253 18.7256 0.565253Z" stroke="#CCCCCC" stroke-width="1.13051"/>
<path d="M22.2242 35.5557L21.0391 34.3705L22.2242 33.1853H43.5576L44.7428 34.3705L43.5576 35.5557H22.2242ZM22.2242 29.6298L21.0391 28.4446L22.2242 27.2594H43.5576L44.7428 28.4446L43.5576 29.6298H22.2242ZM22.2242 23.7039L21.0391 22.5187L22.2242 21.3335H43.5576L44.7428 22.5187L43.5576 23.7039H22.2242Z" fill="white"/>
</g>
<defs>
<filter id="filter0_i_312_9034" x="0.695312" y="0" width="63.4805" height="56" filterUnits="userSpaceOnUse" color-interpolation-filters="sRGB">
<feFlood flood-opacity="0" result="BackgroundImageFix"/>
<feBlend mode="normal" in="SourceGraphic" in2="BackgroundImageFix" result="shape"/>
<feColorMatrix in="SourceAlpha" type="matrix" values="0 0 0 0 0 0 0 0 0 0 0 0 0 0 0 0 0 0 127 0" result="hardAlpha"/>
<feOffset/>
<feGaussianBlur stdDeviation="20.5469"/>
<feComposite in2="hardAlpha" operator="arithmetic" k2="-1" k3="1"/>
<feColorMatrix type="matrix" values="0 0 0 0 0 0 0 0 0 0 0 0 0 0 0 0 0 0 0.85 0"/>
<feBlend mode="normal" in2="shape" result="effect1_innerShadow_312_9034"/>
</filter>
</defs>
</svg>
