<svg width="349" height="28" viewBox="0 0 349 28" fill="none" xmlns="http://www.w3.org/2000/svg">
<path fill-rule="evenodd" clip-rule="evenodd" d="M7.07301 27.4443L40.0334 27.4443L72.3795 9.75194e-07L39.419 5.31107e-07L7.07301 27.4443ZM32.5162 4.38102e-07L0.398753 5.37259e-09L5.34526e-07 27.4443L0.170153 27.4443L32.5162 4.38102e-07ZM79.9045 27.4443L46.9363 27.4443L79.2823 1.0682e-06L112.251 1.51239e-06L79.9045 27.4443ZM86.8074 27.4443L119.768 27.4443L152.114 2.04948e-06L119.153 1.6054e-06L86.8074 27.4443ZM159.639 27.4443L126.671 27.4443L159.017 2.14249e-06L191.985 2.58668e-06L159.639 27.4443ZM166.542 27.4443L199.506 27.4443L231.852 3.12383e-06L198.888 2.67969e-06L166.542 27.4443ZM239.385 27.4443L206.409 27.4443L238.755 3.21683e-06L271.731 3.66113e-06L239.385 27.4443ZM246.288 27.4443L279.24 27.4443L311.586 4.19812e-06L278.634 3.75413e-06L246.288 27.4443ZM317.221 27.4443L286.143 27.4443L318.489 4.29112e-06L348.391 4.694e-06L317.221 27.4443Z" fill="#8D2020"/>
</svg>
