<svg width="44" height="44" viewBox="0 0 44 44" fill="none" xmlns="http://www.w3.org/2000/svg">
<path d="M21.8871 10C17.2977 10 12.3847 12.9242 9.09438 15.9155C6.43362 18.3344 4.62141 20.6656 4 21.502C4.62141 22.3383 6.43362 24.6695 9.09438 27.0884C12.3846 30.0797 17.2977 33.0039 21.8871 33.0039C26.4764 33.0039 31.3894 30.0797 34.6797 27.0884C37.3405 24.6695 39.1527 22.3383 39.7741 21.502C39.1527 20.6656 37.3405 18.3344 34.6797 15.9155C31.3895 12.9242 26.4764 10 21.8871 10ZM21.8871 11.752C23.584 11.7546 25.2509 12.2002 26.7229 13.0445C26.0201 13.302 25.4133 13.769 24.9844 14.3824C24.5555 14.9959 24.3252 15.7261 24.3246 16.4746C24.3251 16.4861 24.3257 16.4976 24.3263 16.5091C23.775 16.238 23.1823 16.0609 22.5726 15.9853V14.1895H21.2015V15.9853C18.6853 16.2972 16.6822 18.3001 16.3704 20.8164H14.5746V22.1875H16.3704C16.6823 24.7038 18.6853 26.7068 21.2015 27.0186V28.8145H22.5726V27.0186C25.0889 26.7067 27.0919 24.7038 27.4037 22.1875H29.1996V20.8164H27.4037C27.3715 20.5589 27.3211 20.304 27.2529 20.0536C27.4924 20.1037 27.7362 20.1295 27.9808 20.1309C28.6096 20.1299 29.2276 19.9668 29.775 19.6573C30.3223 19.3478 30.7807 18.9024 31.1056 18.3641C31.4534 19.3739 31.633 20.4339 31.6371 21.502C31.6371 24.0878 30.6098 26.5678 28.7814 28.3962C26.9529 30.2247 24.4729 31.252 21.8871 31.252C19.3012 31.252 16.8212 30.2247 14.9928 28.3962C13.1643 26.5678 12.1371 24.0878 12.1371 21.502C12.1371 18.9161 13.1643 16.4361 14.9928 14.6077C16.8212 12.7792 19.3012 11.752 21.8871 11.752ZM21.2015 17.3687V19.0645H22.5726V17.3687C24.3426 17.6576 25.7315 19.0464 26.0203 20.8164H24.3246V22.1875H26.0203C25.7315 23.9575 24.3426 25.3463 22.5726 25.6352V23.9395H21.2015V25.6352C19.4315 25.3463 18.0427 23.9575 17.7538 22.1875H19.4496V20.8164H17.7538C18.0427 19.0464 19.4315 17.6576 21.2015 17.3687Z" fill="white"/>
</svg>
