<svg xmlns="http://www.w3.org/2000/svg"  viewBox="0 0 64 64" width="512px" height="512px"><path d="M51.747,22.424l-0.862-1.478C49.86,11.419,41.799,4,32,4s-17.86,7.419-18.885,16.945l-0.862,1.478	c-1.95,3.342-1.582,7.55,0.917,10.504l5.542,6.55l1.043,10.947c0.16,1.68,1.014,3.212,2.364,4.225C24.876,56.719,30,60,32,60	s7.124-3.281,9.882-5.35c1.35-1.013,2.204-2.545,2.364-4.225l1.043-10.947l5.542-6.55C53.329,29.974,53.697,25.766,51.747,22.424z M32,13c0,0.552-0.672,1-1.5,1S29,13.552,29,13s0.672-1,1.5-1S32,12.448,32,13z M27.5,7C28.881,7,30,7.895,30,9	c0,1.104-1.119,2-2.5,2S25,10.104,25,9C25,7.895,26.119,7,27.5,7z M22.5,12c2.485,0,4.5,1.343,4.5,3s-2.015,3-4.5,3S18,16.657,18,15	S20.015,12,22.5,12z M19,35c-4.707-2.165-6-9-6-9s6.293-3.665,11-1.5s6,9.5,6,9.5S23.707,37.165,19,35z M28.561,39.439	c0.728,0.844,1.467,1.833,1.928,3.001c0.47,1.164,0.596,2.418,0.511,3.56h-2c-0.086-0.93-0.331-1.771-0.767-2.483	c-0.431-0.716-1.055-1.338-1.793-1.957L28.561,39.439z M37,52c0,0-2.5,0.5-5,0.5S27,52,27,52v-2c0,0,2.5-0.5,5-0.5s5,0.5,5,0.5V52z M35.767,43.517C35.331,44.229,35.086,45.07,35,46h-2c-0.084-1.142,0.041-2.396,0.511-3.56c0.461-1.167,1.2-2.157,1.928-3.001	l2.121,2.121C36.823,42.179,36.199,42.801,35.767,43.517z M45,35c-4.707,2.165-11-1-11-1s1.293-7.335,6-9.5S51,26,51,26	S49.707,32.835,45,35z"/></svg>