<svg width="32" height="32" viewBox="0 0 32 32" fill="none" xmlns="http://www.w3.org/2000/svg">
<path d="M22.6667 24.0002H28V21.3335H22.6667V18.6668L18.6667 22.6668L22.6667 26.6668V24.0002ZM14.6667 5.3335C11.7333 5.3335 9.33333 7.7335 9.33333 10.6668C9.33333 13.6002 11.7333 16.0002 14.6667 16.0002C17.6 16.0002 20 13.6002 20 10.6668C20 7.7335 17.6 5.3335 14.6667 5.3335ZM14.6667 18.6668C8.8 18.6668 4 21.0668 4 24.0002V26.6668H16.6667C16.2667 25.6002 16 24.5335 16 23.3335C16 21.7335 16.4 20.2668 17.2 18.8002C16.4 18.8002 15.6 18.6668 14.6667 18.6668Z" fill="white"/>
</svg>
