<svg width="44" height="44" viewBox="0 0 44 44" fill="none" xmlns="http://www.w3.org/2000/svg">
<path fill-rule="evenodd" clip-rule="evenodd" d="M22 5.5L11 16.5L17.875 23.375L22 33L26.125 23.375L33 16.5L22 5.5ZM22 23.375L15.125 16.5L22 17.875L28.875 16.5L22 23.375Z" fill="white"/>
<path fill-rule="evenodd" clip-rule="evenodd" d="M7.73851 31.7232L16.8914 28.062L17.975 30.5904L11.9515 32.9998L21.9992 37.0189L32.0469 32.9998L26.024 30.5907L27.1076 28.0623L36.2598 31.7232L39.4515 32.9998L36.2598 34.2765L22.5098 39.7765L21.9992 39.9808L21.4885 39.7765L7.73851 34.2765L4.54688 32.9998L7.73851 31.7232Z" fill="white"/>
</svg>
