<svg width="44" height="44" viewBox="0 0 44 44" fill="none" xmlns="http://www.w3.org/2000/svg">
<path d="M42.9661 22.5696L40.3411 25.2125C40.1705 25.3843 39.9465 25.4706 39.7225 25.4706C39.4985 25.4706 39.2745 25.3843 39.1039 25.2125L36.4789 22.5696C36.1368 22.2252 36.1368 21.6684 36.4789 21.3239C36.821 20.9795 37.374 20.9795 37.7161 21.3239L38.83 22.4454C38.8361 22.2789 38.8475 22.108 38.8475 21.9468C38.8475 12.717 31.3899 5.20868 22.2227 5.20868C15.4371 5.20868 9.39791 9.31304 6.83769 15.6656C6.65569 16.1166 6.1447 16.3333 5.69758 16.151C5.24958 15.9678 5.03434 15.4542 5.21546 15.0031C8.04518 7.9828 14.7214 3.44678 22.2227 3.44678C32.3551 3.44678 40.5975 11.7462 40.5975 21.9468C40.5975 22.1212 40.5843 22.3036 40.5782 22.4815L41.7288 21.3231C42.0709 20.9786 42.6239 20.9786 42.9661 21.3231C43.3082 21.6675 43.3082 22.2252 42.9661 22.5696ZM38.7469 27.7426C38.2997 27.5602 37.7887 27.7769 37.6067 28.228C35.0465 34.5805 29.0082 38.6849 22.2227 38.6849C13.0554 38.6849 5.59783 31.1765 5.59783 21.9468C5.59783 21.7856 5.6092 21.6147 5.61533 21.4482L6.72919 22.5696C7.07131 22.9141 7.62431 22.9141 7.96643 22.5696C8.30855 22.2252 8.30855 21.6684 7.96643 21.3239L5.34146 18.6811C5.16996 18.5093 4.94596 18.423 4.72284 18.423C4.49972 18.423 4.27484 18.5093 4.10422 18.6811L1.47925 21.3239C1.13713 21.6684 1.13713 22.2252 1.47925 22.5696C1.82137 22.9141 2.37436 22.9141 2.71648 22.5696L3.8671 21.4112C3.8601 21.59 3.84785 21.7723 3.84785 21.9468C3.84785 32.1473 12.0903 40.4468 22.2227 40.4468C29.724 40.4468 36.4001 35.9108 39.2299 28.8904C39.411 28.4394 39.1949 27.9258 38.7469 27.7426ZM26.5976 28.9944H31.8476V21.0658H26.5976V28.9944ZM29.2226 10.4944C28.9032 10.4944 28.6092 10.6697 28.4552 10.9525C27.2679 13.1337 26.6947 15.7449 26.6142 19.3039H31.8318C31.7513 15.7449 31.1782 13.1337 29.9908 10.9525C29.8368 10.6697 29.542 10.4944 29.2226 10.4944ZM19.5977 28.9944H24.8476V21.0658H19.5977V28.9944ZM12.5978 28.9944H17.8477V21.0658H12.5978V28.9944ZM26.5976 32.5182C26.5976 33.0054 26.9896 33.3992 27.4726 33.3992H30.9726C31.4556 33.3992 31.8476 33.0054 31.8476 32.5182V30.7563H26.5976V32.5182ZM12.5978 32.5182C12.5978 33.0054 12.9898 33.3992 13.4727 33.3992H16.9727C17.4557 33.3992 17.8477 33.0054 17.8477 32.5182V30.7563H12.5978V32.5182ZM22.2227 10.4944C21.9033 10.4944 21.6093 10.6697 21.4553 10.9525C20.2679 13.1337 19.6948 15.7449 19.6143 19.3039H24.8319C24.7514 15.7449 24.1783 13.1337 22.9909 10.9525C22.8369 10.6697 22.542 10.4944 22.2227 10.4944ZM19.5977 32.5182C19.5977 33.0054 19.9897 33.3992 20.4727 33.3992H23.9726C24.4556 33.3992 24.8476 33.0054 24.8476 32.5182V30.7563H19.5977V32.5182ZM15.2227 10.4944C14.9034 10.4944 14.6094 10.6697 14.4554 10.9525C13.268 13.1337 12.6949 15.7449 12.6144 19.3039H17.832C17.7515 15.7449 17.1783 13.1337 15.991 10.9525C15.837 10.6697 15.5421 10.4944 15.2227 10.4944Z" fill="white"/>
</svg>
