<svg width="44" height="44" viewBox="0 0 44 44" fill="none" xmlns="http://www.w3.org/2000/svg">
<path fill-rule="evenodd" clip-rule="evenodd" d="M23.0998 26.6782C24.8329 26.1989 26.1984 24.8346 26.6795 23.1023L35.3008 23.1023C34.6554 29.5398 29.5371 34.6586 23.0998 35.3047V26.6782ZM20.3435 37.9595V41.4478H23.0998V37.9596C30.999 37.2984 37.2959 31.0015 37.9573 23.1023H41.4478V20.346H37.9572C37.2953 12.4474 30.9986 6.15119 23.0998 5.48997V2H20.3435V5.49011C12.4455 6.15203 6.14961 12.448 5.48777 20.346H2V23.1023H5.48766C6.14895 31.001 12.4451 37.2975 20.3435 37.9595ZM20.3435 35.3049V26.6754C18.6153 26.1936 17.2541 24.8313 16.774 23.1023L8.1401 23.1023C8.78549 29.5406 13.9051 34.6599 20.3435 35.3049ZM8.14017 20.346H16.7739C17.2539 18.6169 18.6151 17.2544 20.3435 16.7726V8.14409C13.9053 8.78904 8.78585 13.908 8.14017 20.346ZM23.0998 8.14434V16.7698C24.833 17.2491 26.1986 18.6135 26.6796 20.346H35.3007C34.6551 13.9089 29.5368 8.79035 23.0998 8.14434Z" fill="white"/>
</svg>
