<svg width="32" height="32" viewBox="0 0 32 32" fill="none" xmlns="http://www.w3.org/2000/svg">
<path d="M9.33333 24.0002H4V21.3335H9.33333V18.6668L13.3333 22.6668L9.33333 26.6668V24.0002ZM17.3333 5.3335C20.2667 5.3335 22.6667 7.7335 22.6667 10.6668C22.6667 13.6002 20.2667 16.0002 17.3333 16.0002C14.4 16.0002 12 13.6002 12 10.6668C12 7.7335 14.4 5.3335 17.3333 5.3335ZM17.3333 18.6668C23.2 18.6668 28 21.0668 28 24.0002V26.6668H15.3333C15.7333 25.6002 16 24.5335 16 23.3335C16 21.7335 15.6 20.2668 14.8 18.8002C15.6 18.8002 16.4 18.6668 17.3333 18.6668Z" fill="white"/>
</svg>
