<svg width="460" height="159" viewBox="0 0 460 159" fill="none" xmlns="http://www.w3.org/2000/svg">
<g opacity="0.7">
<g filter="url(#filter0_i_313_555)">
<path d="M460 89V11.5L450.5 0.5H10L1 11.5L0.5 89L53 158.5H402.5L460 89Z" fill="#555658" fill-opacity="0.5"/>
</g>
<path d="M450.374 0.776036L459.724 11.6027V88.9006L402.37 158.224H53.1374L0.776634 88.9082L1.2754 11.5993L10.1308 0.776036H450.374Z" stroke="#CCCCCC" stroke-width="0.552072"/>
</g>
<g filter="url(#filter1_i_313_555)">
<path d="M434.769 95H24.7788C23.134 95 22.1924 96.8748 23.1744 98.1942L58.9026 146.194C59.28 146.701 59.8749 147 60.507 147H395.341C395.94 147 396.507 146.732 396.887 146.269L436.314 98.2695C437.387 96.9643 436.458 95 434.769 95Z" fill="#0A243D"/>
</g>
<path d="M24.7788 95.4206H434.769C436.103 95.4206 436.836 96.9718 435.989 98.0025L396.562 146.002C396.262 146.368 395.814 146.579 395.341 146.579H60.507C60.0078 146.579 59.5381 146.343 59.24 145.943L23.5118 97.943C22.7363 96.9011 23.4799 95.4206 24.7788 95.4206Z" stroke="#3AA5D3" stroke-width="0.84127"/>
<path d="M174.846 128.919C174.308 128.711 174.147 128.34 174.362 127.809L179.167 115.977C179.369 115.533 179.685 115.311 180.116 115.311H180.157C180.594 115.331 180.89 115.553 181.045 115.977L185.931 127.809C186.146 128.34 185.992 128.711 185.467 128.919C184.935 129.128 184.565 128.973 184.356 128.455L183.266 125.81H176.977L175.937 128.455C175.728 128.98 175.365 129.135 174.846 128.919ZM177.643 124.114H182.569L180.056 117.996L177.643 124.114ZM192.229 129C191.947 129 191.735 128.929 191.593 128.788C191.452 128.647 191.381 128.435 191.381 128.152V117.027H187.464C187.182 117.027 186.97 116.956 186.828 116.815C186.687 116.674 186.616 116.462 186.616 116.179C186.616 115.896 186.687 115.684 186.828 115.543C186.97 115.402 187.182 115.331 187.464 115.331H196.994C197.277 115.331 197.489 115.402 197.63 115.543C197.772 115.684 197.842 115.896 197.842 116.179C197.842 116.462 197.772 116.674 197.63 116.815C197.489 116.956 197.277 117.027 196.994 117.027H193.077V128.152C193.077 128.421 193.003 128.63 192.855 128.778C192.714 128.926 192.505 129 192.229 129ZM205.439 129C205.156 129 204.944 128.929 204.803 128.788C204.662 128.647 204.591 128.435 204.591 128.152V117.027H200.674C200.391 117.027 200.179 116.956 200.038 116.815C199.897 116.674 199.826 116.462 199.826 116.179C199.826 115.896 199.897 115.684 200.038 115.543C200.179 115.402 200.391 115.331 200.674 115.331H210.204C210.487 115.331 210.699 115.402 210.84 115.543C210.981 115.684 211.052 115.896 211.052 116.179C211.052 116.462 210.981 116.674 210.84 116.815C210.699 116.956 210.487 117.027 210.204 117.027H206.287V128.152C206.287 128.421 206.213 128.63 206.065 128.778C205.924 128.926 205.715 129 205.439 129ZM212.287 128.919C211.749 128.711 211.587 128.34 211.803 127.809L216.608 115.977C216.81 115.533 217.126 115.311 217.557 115.311H217.597C218.035 115.331 218.331 115.553 218.486 115.977L223.372 127.809C223.587 128.34 223.432 128.711 222.907 128.919C222.376 129.128 222.006 128.973 221.797 128.455L220.707 125.81H214.417L213.377 128.455C213.169 128.98 212.805 129.135 212.287 128.919ZM215.084 124.114H220.01L217.496 117.996L215.084 124.114ZM231.029 129C229.488 129 228.347 128.633 227.607 127.9C226.873 127.159 226.506 126.019 226.506 124.477V119.834C226.506 118.279 226.873 117.135 227.607 116.401C228.34 115.661 229.474 115.297 231.009 115.311H233.452C234.717 115.311 235.683 115.573 236.349 116.098C237.015 116.617 237.402 117.438 237.51 118.562C237.551 118.844 237.497 119.06 237.349 119.208C237.201 119.356 236.985 119.43 236.703 119.43C236.191 119.43 235.895 119.147 235.814 118.582C235.747 117.963 235.531 117.545 235.168 117.33C234.811 117.115 234.239 117.007 233.452 117.007H231.009C230.295 117 229.733 117.081 229.323 117.249C228.919 117.417 228.63 117.71 228.455 118.127C228.286 118.538 228.202 119.107 228.202 119.834V124.477C228.202 125.197 228.286 125.763 228.455 126.173C228.63 126.584 228.922 126.877 229.333 127.052C229.744 127.22 230.309 127.304 231.029 127.304H233.452C234.239 127.304 234.811 127.196 235.168 126.981C235.531 126.759 235.747 126.342 235.814 125.729C235.895 125.164 236.191 124.881 236.703 124.881C236.985 124.881 237.201 124.955 237.349 125.103C237.497 125.251 237.551 125.467 237.51 125.749C237.402 126.88 237.015 127.704 236.349 128.223C235.683 128.741 234.717 129 233.452 129H231.029ZM242.705 129C242.14 129 241.857 128.717 241.857 128.152V116.159C241.857 115.594 242.14 115.311 242.705 115.311C243.27 115.311 243.553 115.594 243.553 116.159V120.954L248.702 115.634C249.092 115.217 249.489 115.21 249.893 115.614C250.31 116.004 250.317 116.401 249.913 116.805L245.622 121.237L250.68 127.526C251.023 127.977 250.983 128.374 250.559 128.717C250.122 129.074 249.725 129.034 249.368 128.596L244.431 122.478L243.553 123.387V128.152C243.553 128.717 243.27 129 242.705 129Z" fill="white"/>
<path fill-rule="evenodd" clip-rule="evenodd" d="M277.586 114H266.85L273.852 121.767H266.85L276.808 133.048L273.852 124.541L279.609 125.651L277.586 114ZM264.634 126.575L263 121.789L264.634 124.68L265.386 121.789L267.279 127.777L265.386 124.217L264.634 126.575ZM282.232 116.365L280.292 121.819L282.51 120.632L281.616 125.342L284.166 118.663L281.585 120.282L282.232 116.365Z" fill="white"/>
<defs>
<filter id="filter0_i_313_555" x="0.5" y="0.5" width="459.5" height="158" filterUnits="userSpaceOnUse" color-interpolation-filters="sRGB">
<feFlood flood-opacity="0" result="BackgroundImageFix"/>
<feBlend mode="normal" in="SourceGraphic" in2="BackgroundImageFix" result="shape"/>
<feColorMatrix in="SourceAlpha" type="matrix" values="0 0 0 0 0 0 0 0 0 0 0 0 0 0 0 0 0 0 127 0" result="hardAlpha"/>
<feOffset/>
<feGaussianBlur stdDeviation="54.6552"/>
<feComposite in2="hardAlpha" operator="arithmetic" k2="-1" k3="1"/>
<feColorMatrix type="matrix" values="0 0 0 0 0 0 0 0 0 0 0 0 0 0 0 0 0 0 0.85 0"/>
<feBlend mode="normal" in2="shape" result="effect1_innerShadow_313_555"/>
</filter>
<filter id="filter1_i_313_555" x="22.7734" y="95" width="414" height="52" filterUnits="userSpaceOnUse" color-interpolation-filters="sRGB">
<feFlood flood-opacity="0" result="BackgroundImageFix"/>
<feBlend mode="normal" in="SourceGraphic" in2="BackgroundImageFix" result="shape"/>
<feColorMatrix in="SourceAlpha" type="matrix" values="0 0 0 0 0 0 0 0 0 0 0 0 0 0 0 0 0 0 127 0" result="hardAlpha"/>
<feOffset/>
<feGaussianBlur stdDeviation="9.82183"/>
<feComposite in2="hardAlpha" operator="arithmetic" k2="-1" k3="1"/>
<feColorMatrix type="matrix" values="0 0 0 0 0.261137 0 0 0 0 0.742891 0 0 0 0 0.95 0 0 0 0.7 0"/>
<feBlend mode="normal" in2="shape" result="effect1_innerShadow_313_555"/>
</filter>
</defs>
</svg>
