<?xml version="1.0" standalone="no"?>
<!DOCTYPE svg PUBLIC "-//W3C//DTD SVG 20010904//EN"
 "http://www.w3.org/TR/2001/REC-SVG-20010904/DTD/svg10.dtd">
<svg version="1.0" xmlns="http://www.w3.org/2000/svg"
 width="1004.000000pt" height="431.000000pt" viewBox="0 0 1004.000000 431.000000"
 preserveAspectRatio="xMidYMid meet">

<g transform="translate(0.000000,431.000000) scale(0.100000,-0.100000)"
fill="#000000" stroke="none">
<path d="M2890 1919 c0 -6 80 -118 178 -250 l177 -238 1682 -1 1682 0 49 58
c91 104 352 427 352 435 0 4 -927 7 -2060 7 -1497 0 -2060 -3 -2060 -11z
m2544 -206 c11 -71 9 -81 -19 -75 -24 4 -24 3 -14 -27 6 -18 10 -33 8 -35 -2
-1 -24 20 -48 46 l-44 48 32 0 c17 0 31 3 31 7 0 4 -14 22 -32 40 l-32 33 56
0 55 0 7 -37z m-950 -39 c15 -37 24 -69 21 -73 -4 -3 -11 2 -16 12 -6 10 -22
17 -39 17 -17 0 -33 -7 -39 -17 -5 -10 -12 -15 -15 -12 -10 9 46 139 59 139 2
0 15 -30 29 -66z m141 56 c4 -6 -5 -10 -19 -10 -25 0 -26 -2 -26 -60 0 -33 -4
-60 -10 -60 -6 0 -10 27 -10 60 0 53 -2 60 -20 60 -11 0 -20 5 -20 10 0 6 22
10 49 10 28 0 53 -4 56 -10z m135 0 c0 -5 -11 -10 -25 -10 -24 0 -25 -3 -27
-62 l-2 -63 -3 63 c-4 58 -5 62 -28 62 -14 0 -25 5 -25 10 0 6 25 10 55 10 30
0 55 -4 55 -10z m99 -58 c24 -60 27 -85 7 -59 -7 9 -26 17 -41 17 -15 0 -34
-8 -42 -17 -13 -17 -14 -16 -9 8 10 45 48 121 56 113 5 -5 18 -33 29 -62z
m156 52 c19 -20 12 -32 -9 -15 -8 7 -27 11 -43 9 -26 -3 -28 -6 -28 -48 0 -42
2 -45 29 -48 16 -2 33 1 39 7 18 18 28 12 17 -9 -8 -15 -21 -20 -51 -20 -34 0
-41 4 -50 28 -13 32 -5 92 13 104 22 13 66 9 83 -8z m75 -16 c0 -21 2 -20 30
7 34 33 41 23 9 -12 l-22 -22 28 -36 c35 -47 23 -59 -15 -14 l-29 34 -1 -27
c0 -15 -4 -30 -10 -33 -6 -4 -10 20 -10 65 0 45 4 69 10 65 6 -3 10 -16 10
-27z m400 -17 c0 -9 -20 -37 -20 -29 0 3 -2 13 -5 21 -4 8 0 14 10 14 8 0 15
-3 15 -6z m-177 -44 c3 -8 -1 -14 -9 -14 -15 0 -18 9 -7 20 9 9 10 9 16 -6z"/>
<path d="M4442 1683 c-16 -29 -15 -33 8 -33 22 0 23 4 11 35 -8 19 -8 19 -19
-2z"/>
<path d="M4812 1675 c-11 -23 -10 -25 14 -25 22 0 24 2 13 23 -6 12 -13 23
-14 25 -1 1 -7 -9 -13 -23z"/>
</g>
</svg>
