<svg width="610" height="143" viewBox="0 0 610 143" fill="none" xmlns="http://www.w3.org/2000/svg">
<g clip-path="url(#clip0_325_1134)">
<path d="M197.992 34C197.992 33.4477 198.439 33 198.992 33L601.884 33C602.127 33 602.362 33.0887 602.545 33.2495L608.93 38.8728C609.146 39.0626 609.27 39.336 609.27 39.6233L609.27 120.905C609.27 121.176 609.16 121.435 608.966 121.623L589.273 140.718C589.087 140.899 588.837 141 588.577 141L198.992 141C198.439 141 197.992 140.552 197.992 140L197.992 34Z" fill="url(#paint0_radial_325_1134)" stroke="#30CBFF" stroke-width="1.93999" stroke-miterlimit="10" stroke-linecap="round"/>
<path d="M10.1605 60.8056C10.1605 58.7503 8.489 57.0788 6.4346 57.0788C4.38019 57.0788 2.70826 58.7503 2.70826 60.8056C2.70826 62.861 4.38019 64.5325 6.4346 64.5325C8.489 64.5325 10.1605 62.861 10.1605 60.8056ZM-0.00184619 60.8056C-0.00184604 57.2563 2.88527 54.3696 6.4346 54.3696C9.98392 54.3696 12.8711 57.2568 12.8711 60.8056C12.8711 64.354 9.98392 67.2421 6.43459 67.2421C2.88527 67.2421 -0.00184635 64.354 -0.00184619 60.8056Z" fill="#3AA5D3"/>
<path d="M12.5169 62.4953C11.9646 62.4953 11.5169 62.0476 11.5169 61.4953L11.5169 60.7847C11.5169 60.2325 11.9646 59.7847 12.5169 59.7847L33.5522 59.7847C34.1044 59.7847 34.5522 59.337 34.5522 58.7847L34.5522 8.60888C34.5522 8.0566 34.9999 7.60888 35.5522 7.60888L145.809 7.60889C146.074 7.60889 146.328 7.71424 146.516 7.90177L171.115 32.4996C171.302 32.6871 171.408 32.9415 171.408 33.2067L171.41 75.9997C171.41 76.552 170.962 76.9998 170.41 76.9998L169.7 76.9998C169.148 76.9998 168.7 76.5521 168.7 75.9998L168.698 34.3298C168.698 34.0646 168.593 33.8103 168.405 33.6228L145.394 10.6119C145.207 10.4243 144.952 10.319 144.687 10.319L38.2618 10.319C37.7095 10.319 37.2618 10.7667 37.2618 11.319L37.2618 61.4953C37.2618 62.0476 36.8141 62.4953 36.2618 62.4953L12.5169 62.4953Z" fill="#3AA5D3"/>
<path d="M34.8437 111.434C34.6562 111.246 34.5508 110.992 34.5508 110.727L34.5508 68.6411C34.5508 68.0888 34.9986 67.6411 35.5508 67.6411L36.2605 67.6411C36.8128 67.6411 37.2605 68.0888 37.2605 68.6411L37.2605 109.605C37.2605 109.87 37.3658 110.124 37.5534 110.312L66.661 139.42C66.8486 139.607 67.1029 139.713 67.3682 139.713L167.697 139.713C168.249 139.713 168.697 139.265 168.697 138.713L168.697 76.7388C168.697 76.1865 169.144 75.7388 169.697 75.7388L170.406 75.7388C170.959 75.7388 171.406 76.1865 171.406 76.7388L171.406 141.422C171.406 141.975 170.959 142.422 170.406 142.422L66.2459 142.422C65.9807 142.422 65.7263 142.317 65.5388 142.129L34.8437 111.434Z" fill="#3AA5D3"/>
<path d="M161.488 34.8486L143.108 16.417L44.0594 16.417L44.0594 104.785L72.3587 133.828L161.488 133.828L161.488 34.8486Z" fill="url(#paint1_radial_325_1134)"/>
<path d="M72.4219 7.61446L34.554 7.61445L34.3495 38.0723L26.7355 30.4574L26.7355 -1.99701e-06L64.8074 -3.32841e-07L72.4219 7.61446Z" fill="#3AA5D3"/>
<path d="M186.289 90.4295C184.826 90.4295 183.64 89.2436 183.64 87.7812H180.992V90.4295V93.0778V95.7261H183.64C183.64 94.2637 184.826 93.0778 186.289 93.0778V90.4295Z" fill="#3AA5D3"/>
<path d="M186.289 101.023C184.826 101.023 183.64 99.8374 183.64 98.375H180.992V101.023V103.672V106.32H183.64C183.64 104.857 184.826 103.672 186.289 103.672V101.023Z" fill="#3AA5D3"/>
<path d="M186.289 111.617C184.826 111.617 183.64 110.431 183.64 108.969H180.992V111.617V114.265V116.914H183.64C183.64 115.451 184.826 114.265 186.289 114.265V111.617Z" fill="#3AA5D3"/>
<path d="M186.289 58.6483C184.826 58.6483 183.64 57.4624 183.64 56H180.992V58.6483V61.2966V63.9453H183.64C183.64 62.4825 184.826 61.2966 186.289 61.2966V58.6483Z" fill="#3AA5D3"/>
<path d="M186.289 69.242C184.826 69.242 183.64 68.0561 183.64 66.5938H180.992V69.242V71.8903V74.5386H183.64C183.64 73.0762 184.826 71.8903 186.289 71.8903V69.242Z" fill="#3AA5D3"/>
<path d="M186.289 79.8358C184.826 79.8358 183.64 78.6499 183.64 77.1875H180.992V79.8358V82.484V85.1323H183.64C183.64 83.6699 184.826 82.484 186.289 82.484V79.8358Z" fill="#3AA5D3"/>
</g>
<defs>
<radialGradient id="paint0_radial_325_1134" cx="0" cy="0" r="1" gradientUnits="userSpaceOnUse" gradientTransform="translate(481.376 43.2687) rotate(90) scale(551.621 6555.61)">
<stop stop-color="#0A243D"/>
<stop offset="0.988625" stop-color="#2E85AE"/>
</radialGradient>
<radialGradient id="paint1_radial_325_1134" cx="0" cy="0" r="1" gradientUnits="userSpaceOnUse" gradientTransform="translate(101.806 20.7199) rotate(90) scale(488.142 1334.13)">
<stop stop-color="#0A243D"/>
<stop offset="0.988625" stop-color="#2E85AE"/>
</radialGradient>
<clipPath id="clip0_325_1134">
<rect width="609.27" height="142.423" fill="white"/>
</clipPath>
</defs>
</svg>
